<?xml version="1.0" encoding="UTF-8" standalone="no"?>
<svg
   xmlns:dc="http://purl.org/dc/elements/1.1/"
   xmlns:cc="http://creativecommons.org/ns#"
   xmlns:rdf="http://www.w3.org/1999/02/22-rdf-syntax-ns#"
   xmlns:svg="http://www.w3.org/2000/svg"
   xmlns="http://www.w3.org/2000/svg"
   xmlns:xlink="http://www.w3.org/1999/xlink"
   xmlns:sodipodi="http://sodipodi.sourceforge.net/DTD/sodipodi-0.dtd"
   xmlns:inkscape="http://www.inkscape.org/namespaces/inkscape"
   id="a09c848c-d5c4-49aa-a19e-91c8e1064310"
   data-name="Layer 1"
   width="1126.81"
   height="633.59"
   viewBox="0 0 1126.81 633.59"
   version="1.1"
   sodipodi:docname="features-1.svg"
   inkscape:version="1.0.1 (3bc2e813f5, 2020-09-07)">
  <metadata
     id="metadata494">
    <rdf:RDF>
      <cc:Work
         rdf:about="">
        <dc:format>image/svg+xml</dc:format>
        <dc:type
           rdf:resource="http://purl.org/dc/dcmitype/StillImage" />
      </cc:Work>
    </rdf:RDF>
  </metadata>
  <sodipodi:namedview
     pagecolor="#ffffff"
     bordercolor="#666666"
     borderopacity="1"
     objecttolerance="10"
     gridtolerance="10"
     guidetolerance="10"
     inkscape:pageopacity="0"
     inkscape:pageshadow="2"
     inkscape:window-width="1920"
     inkscape:window-height="1001"
     id="namedview492"
     showgrid="false"
     inkscape:zoom="1.0827024"
     inkscape:cx="641.27294"
     inkscape:cy="343.57984"
     inkscape:window-x="-9"
     inkscape:window-y="-9"
     inkscape:window-maximized="1"
     inkscape:current-layer="a09c848c-d5c4-49aa-a19e-91c8e1064310" />
  <defs
     id="defs11">
    <linearGradient
       id="ebf7d176-5ffd-4420-bcca-304f4f77ac7a"
       x1="466.94"
       y1="739.84"
       x2="466.94"
       y2="527.44"
       gradientUnits="userSpaceOnUse">
      <stop
         offset="0"
         stop-color="gray"
         stop-opacity="0.25"
         id="stop2" />
      <stop
         offset="0.54"
         stop-color="gray"
         stop-opacity="0.12"
         id="stop4" />
      <stop
         offset="1"
         stop-color="gray"
         stop-opacity="0.1"
         id="stop6" />
    </linearGradient>
    <linearGradient
       id="ffba99e4-d350-4cb7-a6ec-0715674198cb"
       x1="-222.1"
       y1="711.31"
       x2="-222.1"
       y2="269.19"
       gradientTransform="translate(1052.52 21.29) rotate(-2.2)"
       xlink:href="#ebf7d176-5ffd-4420-bcca-304f4f77ac7a" />
    <linearGradient
       id="f94edff0-5540-4209-9ffe-d34bff61dab8"
       x1="197.37"
       y1="744.56"
       x2="197.37"
       y2="339.73"
       xlink:href="#ebf7d176-5ffd-4420-bcca-304f4f77ac7a" />
    <linearGradient
       inkscape:collect="always"
       xlink:href="#ebf7d176-5ffd-4420-bcca-304f4f77ac7a"
       id="linearGradient496"
       gradientUnits="userSpaceOnUse"
       x1="466.94"
       y1="739.84"
       x2="466.94"
       y2="527.44"
       gradientTransform="matrix(-1,0,0,1,855.0431,-133.2)" />
  </defs>
  <title
     id="title13">status update</title>
  <path
     d="m 687,263.23 c -70.76,0.54 -138.73,-15.45 -203.73,-33.27 -65,-17.82 -129.47,-37.83 -198.84,-46 -44.62,-5.28 -95.4,-4.45 -130.48,16 -33.75,19.66 -43.73,51.88 -48.66,81.62 -3.71,22.38 -5.52,45.86 7.54,66.23 9.07,14.13 24.69,25.73 35.68,39.19 38.26,46.84 14.54,107.11 -23.4,155.51 C 107.34,565.18 86.54,587 73,611 c -13.54,24 -19.18,51.11 -5.79,74.6 13.28,23.29 43.54,40.06 76.08,51.45 66.1,23.14 143.17,27.7 218.23,29.17 166.14,3.24 332.71,-6.64 498.82,-16.51 61.48,-3.65 123.23,-7.33 183.48,-17.15 33.46,-5.45 67.93,-13.43 91.75,-30.6 30.24,-21.8 36.68,-57.12 15,-82.34 -36.37,-42.29 -133,-49.68 -159,-95.53 -14.31,-25.24 -1.57,-54.37 17,-78.91 39.94,-52.65 108.34,-100 109.95,-158.63 1.11,-40.25 -34,-79.28 -86.68,-96.43 -55.24,-18 -130.78,-12.79 -169.84,21.62 -40.16,35.37 -112.5,51.02 -175,51.49 z"
     transform="translate(-36.6,-133.2)"
     fill="#0b75ce"
     opacity="0.1"
     id="path15"
     sodipodi:insensitive="true" />
  <path
     d="M965.57,684.13s-12.29-8.11-24.47-2.35c0,0,3.75,7.23,19.17,6.54Z"
     transform="translate(-36.6 -133.2)"
     fill="#0b75ce"
     id="path17" />
  <path
     d="M967.08,684.56s3.74,14.24-5.63,23.93c0,0-5.64-5.87-.05-20.25Z"
     transform="translate(-36.6 -133.2)"
     fill="#0b75ce"
     id="path19" />
  <path
     d="M982.41,670.89s-.91-12.11-28.26-8.1c0,0-.12,7.82,9.48,11.52S977.62,674.89,982.41,670.89Z"
     transform="translate(-36.6 -133.2)"
     fill="#0b75ce"
     id="path21" />
  <path
     d="M984.09,670.81s11.56,3.71,1.25,29.36c0,0-7.62-1.7-9-11.91S979.08,674.52,984.09,670.81Z"
     transform="translate(-36.6 -133.2)"
     fill="#0b75ce"
     id="path23"
     style="fill:#008080" />
  <path
     d="M999.57,653.62s1.57-19.93-26.38-17.88c0,0-2,18,21.45,22.68Z"
     transform="translate(-36.6 -133.2)"
     fill="#0b75ce"
     id="path25"
     style="fill:#008080" />
  <path
     d="M1018,631.13s-3.83-22.59-31.76-15.86c0,0-.11,19.53,27.2,21.24Z"
     transform="translate(-36.6 -133.2)"
     fill="#0b75ce"
     id="path27"
     style="fill:#008080" />
  <path
     d="M1031.54,607.87s-6.42-22-34.1-15.42c0,0,6.59,19.79,32.26,19.48Z"
     transform="translate(-36.6 -133.2)"
     fill="#0b75ce"
     id="path29"
     style="fill:#008080" />
  <path
     d="M1044.36,585.15s-6.27-22.83-33-16c0,0,8.92,21.69,31.23,19.87Z"
     transform="translate(-36.6 -133.2)"
     fill="#0b75ce"
     id="path31"
     style="fill:#008080" />
  <path
     d="M1052.63,563.57s-4.82-27.92-29.74-21.74c0,0,7.23,25.4,27.9,25.8Z"
     transform="translate(-36.6 -133.2)"
     fill="#0b75ce"
     id="path33"
     style="fill:#008080" />
  <path
     d="M1060.37,537.5s-5.78-28.15-31-20c0,0,9.89,26.6,29.22,23.85Z"
     transform="translate(-36.6 -133.2)"
     fill="#0b75ce"
     id="path35"
     style="fill:#008080" />
  <path
     d="M1065.17,513.23s-9.19-28.14-28.68-27.38c0,0,9.4,29.73,27,33Z"
     transform="translate(-36.6 -133.2)"
     fill="#0b75ce"
     id="path37"
     style="fill:#008080" />
  <path
     d="M1068.22,489.56s-10-33.88-25.87-31.27c0,0,6.93,25.9,25.3,36.55Z"
     transform="translate(-36.6 -133.2)"
     fill="#0b75ce"
     id="path39"
     style="fill:#008080" />
  <path
     d="M1070,461.28s-9.37-28.23-25-29.36c0,0,6.37,27.78,24.68,36.69Z"
     transform="translate(-36.6 -133.2)"
     fill="#0b75ce"
     id="path41"
     style="fill:#008080" />
  <path
     d="M1071.84,435s-11.69-28.26-22-28.9c0,0,5.08,27.83,21,33.54Z"
     transform="translate(-36.6 -133.2)"
     fill="#0b75ce"
     id="path43"
     style="fill:#008080" />
  <path
     d="M1073.14,410.43s-7.18-30.7-17.52-33.24c0,0,1.41,25.11,16.48,35.54Z"
     transform="translate(-36.6 -133.2)"
     fill="#0b75ce"
     id="path45"
     style="fill:#008080" />
  <path
     d="M1077,378.34s-7.56-24.46-15.93-28.19c0,0,1.66,28.84,14,34.18Z"
     transform="translate(-36.6 -133.2)"
     fill="#0b75ce"
     id="path47"
     style="fill:#008080" />
  <path
     d="M1080.26,357.27l1.53-43.14s-15.62,32.56-2.68,50.75Z"
     transform="translate(-36.6 -133.2)"
     fill="#0b75ce"
     id="path49"
     style="fill:#008080" />
  <path
     d="M1092.35,314.4s11.26-31.5,14-33.26c0,0-22.1,20.44-19.94,46.73Z"
     transform="translate(-36.6 -133.2)"
     fill="#0b75ce"
     id="path51"
     style="fill:#008080" />
  <path
     d="M1000.34,653.48s19.82-2.6,19.22,25.42c0,0-17.91,2.91-23.75-20.25Z"
     transform="translate(-36.6 -133.2)"
     fill="#0b75ce"
     id="path53"
     style="fill:#008080" />
  <path
     d="M1019,630.37s22.91-.07,21,28.6c0,0-19.22,3.43-25.57-23.18Z"
     transform="translate(-36.6 -133.2)"
     fill="#0b75ce"
     id="path55"
     style="fill:#008080" />
  <path
     d="M1031.76,609.72s20.79-9.75,34.1,15.42c0,0-19.21,8.12-35.93-11.35Z"
     transform="translate(-36.6 -133.2)"
     fill="#0b75ce"
     id="path57"
     style="fill:#008080" />
  <path
     d="M1044.82,585.36s21.29-10.37,33.79,14.21c0,0-22.17,7.64-35.54-10.32Z"
     transform="translate(-36.6 -133.2)"
     fill="#0b75ce"
     id="path59"
     style="fill:#008080" />
  <path
     d="M1052.35,564.18s20.49-19.58,36.85.22c0,0-20.94,16.1-37.79,4.14Z"
     transform="translate(-36.6 -133.2)"
     fill="#0b75ce"
     id="path61"
     style="fill:#008080" />
  <path
     d="M1059.21,536.83s20.62-20,36.84.92c0,0-23.14,16.43-37.57,3.28Z"
     transform="translate(-36.6 -133.2)"
     fill="#0b75ce"
     id="path63"
     style="fill:#008080" />
  <path
     d="M1063.07,512.43s15.88-25,34.57-19.41c0,0-16.47,26.47-34.4,25.29Z"
     transform="translate(-36.6 -133.2)"
     fill="#0b75ce"
     id="path65"
     style="fill:#008080" />
  <path
     d="M1067.75,489.4s16-31.49,31.13-26c0,0-11.53,24.2-31.54,31.31Z"
     transform="translate(-36.6 -133.2)"
     fill="#0b75ce"
     id="path67"
     style="fill:#008080" />
  <path
     d="M1068.85,459.67s16.45-24.78,31.86-21.76c0,0-13.45,25.13-33.45,28.93Z"
     transform="translate(-36.6 -133.2)"
     fill="#0b75ce"
     id="path69"
     style="fill:#008080" />
  <path
     d="M1070.1,434.39s12.75-27.8,23.12-28c0,0-6.13,27.61-22.26,32.72Z"
     transform="translate(-36.6 -133.2)"
     fill="#0b75ce"
     id="path71"
     style="fill:#008080" />
  <path
     d="M1072.63,409.83s14.17-28.17,24.82-28.22c0,0-7.25,24.08-24.35,30.69Z"
     transform="translate(-36.6 -133.2)"
     fill="#0b75ce"
     id="path73"
     style="fill:#008080" />
  <path
     d="M1074.76,380.07s10.6-23.3,19.38-25.94c0,0-5.3,28.4-18.21,32.12Z"
     transform="translate(-36.6 -133.2)"
     fill="#0b75ce"
     id="path75"
     style="fill:#008080" />
  <path
     d="M1081.52,356.45l23.69-36.08s-6.07,35.6-27.14,43Z"
     transform="translate(-36.6 -133.2)"
     fill="#0b75ce"
     id="path77"
     style="fill:#008080" />
  <path
     d="M1097.78,317.3s27.54-19,28.53-22.08c0,0-14,26.62-40,31.32Z"
     transform="translate(-36.6 -133.2)"
     fill="#0b75ce"
     id="path79"
     style="fill:#008080" />
  <path
     d="M1099.43,308.75s31.61-30.38,39.68-30.35c0,0-26.07,1.19-40.44,28.74Z"
     transform="translate(-36.6 -133.2)"
     fill="#0b75ce"
     id="path81"
     style="fill:#008080" />
  <path
     d="M1075.07,384.58l1.15.15c5.94-46.5,14.6-74,24.39-77.37l-.38-1.1C1089.85,309.86,1081.15,336.94,1075.07,384.58Z"
     transform="translate(-36.6 -133.2)"
     fill="#444053"
     id="path83"
     style="fill:#008080" />
  <path
     d="M1066.34,495.75l1.74.15c.36-4.34.64-8.79.83-13.21,1.66-38.48,4.23-73.82,7.62-100.31l-1-1.25c-3.39,26.54-6.69,62.95-8.35,101.49C1067,487,1066.7,491.44,1066.34,495.75Z"
     transform="translate(-36.6 -133.2)"
     fill="#444053"
     id="path85"
     style="fill:#008080" />
  <path
     d="M933.11,706.26c.31-.13,30.94-13.81,62.73-46.44a252.42,252.42,0,0,0,45.85-65c14.69-29.93,23.65-66.71,26.66-102.44l-1.82.85c-6.74,80.2-43.26,135-72.29,164.85-31.48,32.33-61.76,45.87-62.06,46Z"
     transform="translate(-36.6 -133.2)"
     fill="#444053"
     id="path87"
     style="fill:#008080" />
  <path
     d="m 1006.45,164.39 v 518.42 c 0,15.41 -14.87,28 -33.23,28 H 269.85 c -18.36,0 -33.23,-12.54 -33.23,-28 V 164.39 c 0,-15.44 14.87,-31.19 33.23,-31.19 l 703.33,1.71 c 18.36,0 33.27,14.09 33.27,29.48 z"
     transform="translate(-36.6,-133.2)"
     fill="#ffffff"
     id="path89"
     sodipodi:insensitive="true" />
  <path
     d="M1006.45,164.55v24H236.62v-24A31.35,31.35,0,0,1,268,133.2H975.11A31.35,31.35,0,0,1,1006.45,164.55Z"
     transform="translate(-36.6 -133.2)"
     fill="#3f3d56"
     id="path91"
     style="fill:#477c88" />
  <circle
     cx="237.32"
     cy="27.67"
     r="11.08"
     fill="#fa5959"
     opacity="0.8"
     id="circle93" />
  <circle
     cx="269.55"
     cy="27.67"
     r="11.08"
     fill="#fed253"
     opacity="0.8"
     id="circle95" />
  <circle
     cx="301.78"
     cy="27.67"
     r="11.08"
     fill="#8ccf4d"
     opacity="0.8"
     id="circle97" />
  <g
     opacity="0.2"
     id="g101">
    <path
       d="M690,323v56c0,1.67-3.13,3-7,3H535.28c-3.86,0-7-1.35-7-3V323c0-1.67,3.12-3.37,7-3.37H683C686.88,319.62,690,321.32,690,323Z"
       transform="translate(-36.6 -133.2)"
       fill="#0b75ce"
       id="path99" />
  </g>
  <rect
     x="562.67"
     y="206.42"
     width="76.96"
     height="2.72"
     fill="#0b75ce"
     id="rect103" />
  <path
     d="M560.33,333.66a18.25,18.25,0,0,0-10.06,33.47v-1.21a4.15,4.15,0,0,1,3.65-4.11,7.24,7.24,0,0,0,12.7,0,4.15,4.15,0,0,1,3.65,4.11v1.29a18.25,18.25,0,0,0-9.94-33.55Zm7.16,23.14a7.23,7.23,0,0,1-14.43,0,7.92,7.92,0,0,1,4.15-10.61,2.46,2.46,0,0,1-.39-1.31,2.41,2.41,0,0,1,2.42-2.41h.17a2.41,2.41,0,0,0-2.24,2.4,2.44,2.44,0,0,0,.32,1.2l.07,0a2.61,2.61,0,0,1,0-.48,2.35,2.35,0,0,1,.46-1.4,2.4,2.4,0,0,1,2.3-1.7h.17a2.39,2.39,0,0,0-1.84,1.08,2.34,2.34,0,0,1,1.33-.4,2.41,2.41,0,0,1,2.41,2.41,2.45,2.45,0,0,1,0,.27,7.93,7.93,0,0,1,5.88,7.66A8.07,8.07,0,0,1,567.49,356.8Z"
     transform="translate(-36.6 -133.2)"
     fill="#0b75ce"
     opacity="0.2"
     id="path105" />
  <rect
     x="562.67"
     y="213.04"
     width="76.96"
     height="2.72"
     fill="#0b75ce"
     opacity="0.2"
     id="rect107" />
  <rect
     x="562.67"
     y="219.66"
     width="76.96"
     height="2.72"
     fill="#0b75ce"
     opacity="0.2"
     id="rect109" />
  <rect
     x="562.67"
     y="226.29"
     width="76.96"
     height="2.72"
     fill="#0b75ce"
     opacity="0.2"
     id="rect111" />
  <g
     opacity="0.2"
     id="g115">
    <path
       d="M516.59,432.67v56c0,1.66-3.12,3-7,3H361.87c-3.86,0-7-1.36-7-3v-56c0-1.67,3.12-3.37,7-3.37H509.61C513.47,429.3,516.59,431,516.59,432.67Z"
       transform="translate(-36.6 -133.2)"
       fill="#0b75ce"
       id="path113" />
  </g>
  <rect
     x="389.25"
     y="316.1"
     width="76.96"
     height="2.72"
     fill="#0b75ce"
     id="rect117" />
  <path
     d="M386.92,443.33a18.25,18.25,0,0,0-10.06,33.48v-1.22a4.14,4.14,0,0,1,3.65-4.1,7.24,7.24,0,0,0,12.7,0,4.14,4.14,0,0,1,3.65,4.1v1.3a18.25,18.25,0,0,0-9.94-33.56Zm7.15,23.14a7.23,7.23,0,0,1-14.43,0,8,8,0,0,1-.71-3.29,7.94,7.94,0,0,1,4.86-7.32,2.39,2.39,0,0,1-.38-1.3,2.42,2.42,0,0,1,2.41-2.42H386a2.41,2.41,0,0,0-1.93,3.6l.08,0a2.42,2.42,0,0,1,0-.47,3.54,3.54,0,0,1,2.76-3.11H387a2.42,2.42,0,0,0-1.84,1.08,2.39,2.39,0,0,1,1.32-.4,2.42,2.42,0,0,1,2.42,2.42,2.45,2.45,0,0,1,0,.27,7.92,7.92,0,0,1,5.16,11Z"
     transform="translate(-36.6 -133.2)"
     fill="#0b75ce"
     opacity="0.2"
     id="path119" />
  <rect
     x="389.25"
     y="322.72"
     width="76.96"
     height="2.72"
     fill="#0b75ce"
     opacity="0.2"
     id="rect121" />
  <rect
     x="389.25"
     y="329.34"
     width="76.96"
     height="2.72"
     fill="#0b75ce"
     opacity="0.2"
     id="rect123" />
  <rect
     x="389.25"
     y="335.96"
     width="76.96"
     height="2.72"
     fill="#0b75ce"
     opacity="0.2"
     id="rect125" />
  <g
     opacity="0.2"
     id="g129">
    <path
       d="M476.7,255.08v56c0,1.66-3.12,3-7,3H322c-3.85,0-7-1.36-7-3v-56c0-1.67,3.13-3.37,7-3.37H469.72C473.58,251.71,476.7,253.41,476.7,255.08Z"
       transform="translate(-36.6 -133.2)"
       fill="#0b75ce"
       id="path127" />
  </g>
  <rect
     x="349.36"
     y="138.51"
     width="76.96"
     height="2.72"
     fill="#0b75ce"
     id="rect131" />
  <rect
     x="349.36"
     y="145.13"
     width="76.96"
     height="2.72"
     fill="#0b75ce"
     opacity="0.2"
     id="rect133" />
  <rect
     x="349.36"
     y="151.75"
     width="76.96"
     height="2.72"
     fill="#0b75ce"
     opacity="0.2"
     id="rect135" />
  <rect
     x="349.36"
     y="158.37"
     width="76.96"
     height="2.72"
     fill="#0b75ce"
     opacity="0.2"
     id="rect137" />
  <path
     d="M347,265.74A18.26,18.26,0,0,0,337,299.22v-3.09a4.15,4.15,0,0,1,3.65-4.11,7.24,7.24,0,0,0,12.7,0,4.14,4.14,0,0,1,3.65,4.11v3.16A18.25,18.25,0,0,0,347,265.74Zm8,22.28a1.23,1.23,0,0,1-.24.31,1,1,0,0,1-.53.18l-.37,0a7.25,7.25,0,0,1-14.19-2.06,7.14,7.14,0,0,1,.95-3.56l-.08-.05a2.41,2.41,0,0,1,.24-3.35,4.82,4.82,0,0,1,1.5-.55,6.7,6.7,0,0,0,3.8-2.91,8,8,0,0,1,0,1.1,1.61,1.61,0,0,1,2.29-.08,4.6,4.6,0,0,0,.65.74,2,2,0,0,0,.81.23l1.82.23a3.48,3.48,0,0,1,2.07.75,3.28,3.28,0,0,1,.69,1.22,18.24,18.24,0,0,1,1.19,3.85A6.17,6.17,0,0,1,355.05,288Z"
     transform="translate(-36.6 -133.2)"
     fill="#0b75ce"
     opacity="0.2"
     id="path139" />
  <g
     opacity="0.2"
     id="g143">
    <path
       d="M730.37,520v56c0,1.67-3.12,3-7,3H575.64c-3.86,0-7-1.35-7-3V520c0-1.67,3.12-3.36,7-3.36H723.39C727.25,516.59,730.37,518.28,730.37,520Z"
       transform="translate(-36.6 -133.2)"
       fill="#0b75ce"
       id="path141" />
  </g>
  <rect
     x="603.03"
     y="403.38"
     width="76.96"
     height="2.72"
     fill="#0b75ce"
     id="rect145" />
  <rect
     x="603.03"
     y="410"
     width="76.96"
     height="2.72"
     fill="#0b75ce"
     opacity="0.2"
     id="rect147" />
  <rect
     x="603.03"
     y="416.63"
     width="76.96"
     height="2.72"
     fill="#0b75ce"
     opacity="0.2"
     id="rect149" />
  <rect
     x="603.03"
     y="423.25"
     width="76.96"
     height="2.72"
     fill="#0b75ce"
     opacity="0.2"
     id="rect151" />
  <path
     d="M600.69,530.62a18.25,18.25,0,0,0-10.06,33.47V561a4.15,4.15,0,0,1,3.65-4.1,7.24,7.24,0,0,0,12.7,0,4.14,4.14,0,0,1,3.65,4.1v3.17a18.25,18.25,0,0,0-9.94-33.55Zm8,22.27a1.12,1.12,0,0,1-.24.32,1,1,0,0,1-.53.18h-.38a7.24,7.24,0,1,1-13.23-5.62l-.08,0a2.41,2.41,0,0,1,.24-3.35,4.82,4.82,0,0,1,1.5-.55,6.69,6.69,0,0,0,3.8-2.9,8,8,0,0,1,0,1.1,1.61,1.61,0,0,1,2.29-.08,4.14,4.14,0,0,0,.65.73,1.91,1.91,0,0,0,.81.24l1.82.23a3.42,3.42,0,0,1,2.07.75,3.28,3.28,0,0,1,.69,1.22,18.06,18.06,0,0,1,1.19,3.85A6.14,6.14,0,0,1,608.72,552.89Z"
     transform="translate(-36.6 -133.2)"
     fill="#0b75ce"
     opacity="0.2"
     id="path153" />
  <path
     d="m 298.8831,570.28 21.94,-31.81 c 0,0 0.41,-7.88 1.85,-9.72 1.44,-1.84 0.31,-5.93 0.31,-5.93 0,0 -1.54,-2.25 -0.21,-2.46 1.33,-0.21 0.21,-5.22 0.21,-5.22 l 0.1,-8 c 0,0 -1.23,-7.68 -0.21,-9.52 a -3,3 0 0 0 -0.1,-3.27 c 0,0 -1.23,-4.4 0,-5.53 1.23,-1.13 0.93,-8 0.62,-13.4 -0.31,-5.4 2.15,-8.49 2.15,-9.31 0,-0.82 8.1,-8.79 8.1,-9.51 0,-0.72 5.13,-3.68 8.21,-4.5 3.08,-0.82 4.61,-1.43 4.51,-1.84 -0.1,-0.41 4.82,-2 4.82,-2 0,0 4.3,-0.31 5.95,-2.45 1.65,-2.14 6.65,-2.78 6.8,-2.79 l 0.09,-0.43 0.09,-0.46 c -0.38,-0.65 -0.74,-1.32 -1.07,-2 -0.1,-0.21 -0.19,-0.41 -0.28,-0.62 a -8.78,8.78 0 0 1 -5.05,-1.57 -6.85,6.85 0 0 1 -2.45,-4.91 -10.83,10.83 0 0 1 1.19,-5.45 c 0.9,-1.84 2.22,-3.75 1.77,-5.75 -0.2,-0.86 -0.72,-1.62 -1,-2.46 a -6.5,6.5 0 0 1 0.74,-4.85 c 0.77,-1.48 1.85,-2.79 2.72,-4.23 a -16.42,16.42 0 0 0 2.16,-6 -9.24,9.24 0 0 1 0.8,-3.26 -6.24,6.24 0 0 1 1.8,-1.82 -18,18 0 0 1 11,-3.34 c 2.79,0.1 5.58,0.85 8.35,0.51 a -30.6,30.6 0 0 0 4.87,-1.27 c 3.44,-1 7.41,-1.44 10.4,0.53 2.99,1.97 4.19,5.84 6.22,8.87 1.8,2.67 4.42,4.92 5.79,7.76 0,-0.06 0,-0.11 0,-0.17 a -9.86,9.86 0 0 1 0.76,2.07 -14.74,14.74 0 0 1 -0.45,6.78 -4.72,4.72 0 0 1 -1.66,3 c -1,0.65 -2.4,0.5 -3.59,0.71 0.05,0.19 0.1,0.39 0.14,0.58 a -23,23 0 0 1 0.51,4.87 -23.44,23.44 0 0 1 -16.74,22.47 c 0,0.21 0,0.42 0,0.62 a -16.37,16.37 0 0 0 0.1,1.76 v 0 c 0,0 10.31,-2.12 13.07,-0.68 2.76,1.44 8.21,2.55 9,3.37 0.79,0.82 2.87,0.21 4.72,5 1.85,4.79 2.05,9.72 4.4,12 2.35,2.28 3.59,3.79 3.7,5.43 0.11,1.64 -0.31,2 0.61,2.55 0.92,0.55 2.26,2.66 1.85,3.48 a -2.9,2.9 0 0 0 1.13,3.07 -3.41,3.41 0 0 1 1.43,3.07 c 0,0 0.62,2.25 2.05,2.76 1.43,0.51 2.36,3.89 2.36,3.89 l 4.65,5.35 9.22,-10.2 a -3.89,3.89 0 0 1 5.48,-0.28 l 4.54,4.03 a -8.94,8.94 0 0 1 4.53,2.7 -11.75,11.75 0 0 1 2.34,3.49 l 2.48,2.23 a -6.28,6.28 0 0 1 0.64,6.95 l -5.91,6.53 v 0.06 a -10.33,10.33 0 0 1 5.71,2.32 c 8.81,7.78 8.92,14.94 7.58,18.21 -1.34,3.27 -12.51,15.86 -12.51,15.86 0,0 -6.49,8.44 -15.86,12.93 v 0 l 0.07,0.07 c 0.19,0.2 0.37,0.41 0.55,0.64 l 0.15,0.2 a -1.43,1.43 0 0 1 0.14,0.2 l 0.17,0.24 0.13,0.2 0.18,0.3 0.11,0.19 0.21,0.4 c 0,0 0.05,0.09 0.07,0.13 0.02,0.04 0.17,0.37 0.25,0.56 l 0.09,0.21 c 0,0.13 0.1,0.27 0.16,0.4 l 0.09,0.27 c 0,0.13 0.09,0.26 0.13,0.4 l 0.09,0.29 q 0.06,0.21 0.12,0.45 c 0,0.09 0.05,0.18 0.07,0.27 0.02,0.09 0.11,0.49 0.16,0.74 a -2.5,2.5 0 0 1 0,0.29 -4.51,4.51 0 0 1 0.09,0.53 c 0,0.12 0,0.24 0.05,0.37 0.05,0.13 0.05,0.33 0.07,0.51 0.02,0.18 0,0.25 0,0.39 0,0.14 0,0.38 0,0.58 v 0.36 c 0,0.32 0,0.65 0,1 0.21,12 -0.49,13.71 -0.49,13.71 a -6.64,6.64 0 0 1 -5.44,4.08 -7.17,7.17 0 0 1 -1.76,-0.09 c -5.33,-0.93 -17.84,-3.07 -22.25,-2.25 -2.65,0.49 -7.56,-0.24 -11.05,-0.9 l -0.92,-0.18 -0.64,2 -2,-0.56 -1.72,1 -1.09,0.62 c -2,6.86 -10.24,4.52 -10.24,4.52 l -1.95,1.13 -19.79,0.51 a -39.78,39.78 0 0 1 -7,3.36 -6.29,6.29 0 0 1 -1,0.22 -44.38,44.38 0 0 1 -5.51,0.1 c -1.52,0 -2.69,-0.1 -2.69,-0.1 0,0 0.2,-5.37 0.49,-11.39 a -161.45,161.45 0 0 1 -18.33,-1.5 c -10.57,-1.86 -15,-11.47 -16.6,-16.6 a -46.9,46.9 0 0 0 -1,6.37 -46.46,46.46 0 0 1 -1.64,5.52 -18.45,18.45 0 0 1 -2.26,4.1 c -7.79,-2.66 -3.07,-6.65 -1.43,-8.39 1.64,-1.74 -1.13,-3.17 -1.13,-3.17 0,0 -2.16,-1.44 -2,-2.77 0.16,-1.33 0.31,-2.76 -6.67,-2.66 -6.98,0.1 -6.51,-5.67 -6.51,-5.67 z m 108.28,-65.32 c -0.09,0.59 -1.06,6.89 -1.94,8.55 a -10.9,10.9 0 0 0 -0.23,3.37 c 4.13,-0.33 8.43,-0.51 8.43,-0.51 a -1,1 0 0 0 -0.22,0.53 l 0.65,-0.15 0.95,-0.23 -7.62,-11.57 z m 15.08,24 -7.15,1.14 -0.6,0.09 a -25.52,25.52 0 0 1 0.37,3.38 c 0,0.1 -0.16,0.23 -0.39,0.38 a -10.74,10.74 0 0 1 0.14,1.69 c -0.12,0.57 -3.46,1.79 -7.3,2.81 0.06,0.2 0.11,0.4 0.16,0.58 v 0 c 3.39,-1.78 8.72,-2.61 9.34,-3.93 0.62,-1.32 18.76,-7.67 18.76,-7.67 0,0 0.67,-0.35 1.81,-0.9 l -4.78,0.9 -1.31,-0.13 a -71.46,71.46 0 0 1 -9.05,1.65 z"
     fill="url(#ebf7d176-5ffd-4420-bcca-304f4f77ac7a)"
     id="path155"
     style="fill:url(#linearGradient496)" />
  <path
     d="m 322.2231,574.73 c 0,0 2.85,17.18 17.28,19.72 14.43,2.54 62.6,2 62.6,2 0,0 27.54,-4 37.5,-27.23 9.96,-23.23 16.37,-32.53 7.83,-32.93 -8.54,-0.4 -54.58,15.55 -57.22,15.75 -2.64,0.2 -70.53,-35.34 -67.99,22.69 z"
     fill="#65617d"
     id="path157" />
  <path
     d="m 322.2231,574.73 c 0,0 2.85,17.18 17.28,19.72 14.43,2.54 62.6,2 62.6,2 0,0 27.54,-4 37.5,-27.23 9.96,-23.23 16.37,-32.53 7.83,-32.93 -8.54,-0.4 -54.58,15.55 -57.22,15.75 -2.64,0.2 -70.53,-35.34 -67.99,22.69 z"
     opacity="0.05"
     id="path159" />
  <path
     d="m 451.4131,593.8 a -6.59,6.59 0 0 1 -5.37,4.1 -7,7 0 0 1 -1.74,-0.1 c -5.28,-0.91 -17.68,-3 -22.05,-2.23 -2.63,0.49 -7.5,-0.24 -11,-0.89 -2.3,-0.43 -4,-0.84 -4,-0.84 0,0 4.06,-13.52 4.57,-13.92 0.51,-0.4 18.33,-11.12 18.33,-11.12 l 14.09,-1 v 0 a -7.41,7.41 0 0 1 4.77,2.81 c 1.49,1.8 2.77,4.75 2.85,9.59 0.25,11.91 -0.45,13.6 -0.45,13.6 z"
     fill="#3f3d56"
     id="path161" />
  <path
     d="m 451.4131,593.8 a -6.59,6.59 0 0 1 -5.37,4.1 -57.66,57.66 0 0 0 3.82,-5.58 l -0.07,-9.86 a -17.38,17.38 0 0 0 -5.55,-14.66 v 0 c 0,0 7.42,0.51 7.62,12.4 0.2,11.89 -0.45,13.6 -0.45,13.6 z"
     opacity="0.05"
     id="path163" />
  <path
     d="m 390.3131,572.29 -13.11,-10.26 -20.63,-20.33 5.59,-0.25 c 0.84,0.53 3.18,2.21 3.27,4.25 0.1,2.48 5.57,0.17 8.42,1.59 2.85,1.42 16.77,19.24 19.19,19.13 2.42,-0.11 4.37,-1.24 5.38,0.49 a -1,1 0 0 0 0.08,0.11 z"
     opacity="0.1"
     id="path165" />
  <path
     d="m 449.0431,570.63 -1.42,0.65 c -10,4.27 -22.25,13.21 -23.17,14.84 -0.56,1 -7.69,5.32 -13.19,8.56 -2.3,-0.43 -4,-0.84 -4,-0.84 0,0 4.06,-13.52 4.57,-13.92 0.51,-0.4 18.32,-11.12 18.32,-11.12 l 14.09,-1 v 0 a -7.41,7.41 0 0 1 4.8,2.83 z"
     opacity="0.1"
     id="path167" />
  <path
     d="m 476.7031,541.5 c -1.32,3.25 -12.4,15.75 -12.4,15.75 0,0 -7,9.15 -17,13.42 -10,4.27 -22.26,13.21 -23.17,14.84 -0.59,1 -8.53,5.82 -14.12,9.11 l -1.26,0.73 -2.77,1.61 -1.47,0.84 c 0,0 -3.4,-2.73 -6.79,-5.48 -3.39,-2.75 -6.68,-5.44 -6.73,-5.59 -0.1,-0.31 -1.42,-3.76 -1.11,-4 0.16,-0.1 0.85,-1.51 2.14,-3.14 a -14.41,14.41 0 0 1 5.17,-4.28 -14.68,14.68 0 0 0 6.71,-7 c 0,0 0.45,-0.32 1.12,-0.75 a -13.6,13.6 0 0 1 4.57,-2 c 2.24,-0.28 6.4,-4.85 6.4,-4.85 a -12.53,12.53 0 0 0 4,-4.17 c 1.07,-2.23 16.83,-13 18.29,-14 l -38.24,24.49 -9.15,5.87 -13.11,-10.26 -20.63,-20.33 6.81,-0.3 c 10,-0.44 27.83,-1.12 30.08,-0.61 a -17,17 0 0 0 5.59,0.36 c 0,0 5.08,0.23 8.43,-1.54 3.35,-1.77 8.65,-2.6 9.26,-3.91 0.61,-1.31 18.6,-7.62 18.6,-7.62 0,0 24.49,-13 33.23,-5.28 8.74,7.72 8.89,14.84 7.55,18.09 z"
     fill="#65617d"
     id="path169" />
  <path
     d="m 397.7331,466.9 -3.15,10.47 -4.06,23.58 -14.94,1 -4.33,-7.18 -4.31,-7.15 c 0,0 -2.69,-9.53 -4.63,-18.75 -1.71,-8.15 -2.82,-16.07 -1,-16.93 1.65,-0.76 2.73,-3.51 3.44,-6.46 0.09,-0.36 0.17,-0.73 0.24,-1.1 a -57.52,57.52 0 0 0 1,-7.58 c 0,0 31.31,-1.63 26.94,11.28 a -20.38,20.38 0 0 0 -1.18,6.86 -16.33,16.33 0 0 0 0.1,1.75 -14.63,14.63 0 0 0 5.88,10.21 z"
     fill="#ee8e9e"
     id="path171" />
  <path
     d="m 404.2431,465.17 -1.12,17.79 -2.54,15.14 -2.85,7 -2.54,38.36 c 0,0 -24.5,2.84 -30.46,0 a -2.61,2.61 0 0 1 -1.08,-0.84 c -7.2,-10.87 -4.84,-42.35 -4.84,-42.35 l -2.77,-20.36 1.83,-10.55 4.42,-0.47 3.41,-0.36 c 0,0 0.77,0.94 1.87,2.41 3,4 8.56,11.8 8.19,15.07 -0.51,4.47 0.61,9 2.34,9.75 1.73,0.75 3.15,1.94 3.45,0.72 a -5.5,5.5 0 0 0 0.31,-3.25 c -0.31,-1.73 1.32,-7 1.32,-7 0,0 2.74,-6.2 2.54,-8.84 -0.2,-2.64 0.3,-5.69 1.12,-6.4 0.82,-0.71 1.93,-1.43 1,-4.68 -0.93,-3.25 4,-9.58 4,-9.58 z"
     fill="#e3e8f4"
     id="path173" />
  <path
     d="m 371.8731,509.59 -1,30.39 -5.87,3.26 a -2.54,2.54 0 0 1 -1.08,-0.85 c -7.2,-10.87 -4.84,-42.35 -4.84,-42.35 l -2.74,-20.33 1.83,-10.55 4.42,-0.47 c -1.71,-8.15 -2.83,-16.06 -1,-16.92 1.65,-0.77 2.74,-3.51 3.44,-6.46 v 0 l 3.18,21.49 c 0,0 -0.27,1.93 -0.36,3.93 a -11.13,11.13 0 0 0 0.26,3.79 c 0.71,1.83 0.2,5.08 0.2,5.08 1.83,3.23 2.75,9.21 3.19,15 0.6,7.68 0.37,14.99 0.37,14.99 z"
     opacity="0.1"
     id="path175" />
  <path
     d="m 364.9431,444.8 c 0,0 -5.12,0.64 -6.74,2.77 -1.62,2.13 -5.9,2.44 -5.9,2.44 0,0 -4.88,1.63 -4.77,2 0.11,0.37 -1.43,1 -4.48,1.83 -3.05,0.83 -8.13,3.76 -8.13,4.48 0,0.72 -8,8.63 -8,9.45 0,0.82 -2.43,3.86 -2.13,9.25 0.3,5.39 0.61,12.19 -0.61,13.31 -1.22,1.12 0,5.49 0,5.49 a -3,3 0 0 1 0.1,3.25 c -1,1.83 0.21,9.45 0.21,9.45 l -0.11,7.93 c 0,0 1.12,5 -0.2,5.18 -1.32,0.18 0.2,2.44 0.2,2.44 0,0 1.12,4.07 -0.3,5.9 -1.42,1.83 -1.83,9.65 -1.83,9.65 l -21.75,31.61 c 0,0 -0.3,5.79 6.61,5.69 6.91,-0.1 6.81,1.32 6.6,2.64 -0.21,1.32 1.93,2.75 1.93,2.75 0,0 2.75,1.42 1.12,3.15 -1.63,1.73 -6.3,5.69 1.42,8.33 a -18.38,18.38 0 0 0 2.24,-4.06 -47.34,47.34 0 0 0 1.63,-5.49 c 0,0 0.71,-7.73 2.13,-8.74 1.42,-1.01 1.22,-5.9 1.22,-5.9 0,0 -2,-4 0.81,-5.59 2.81,-1.59 44.11,-24.49 44.11,-24.49 l 1,-30.39 c 0,0 0.71,-22.46 -3.56,-30 0,0 0.51,-3.25 -0.2,-5.08 -0.71,-1.83 0.1,-7.73 0.1,-7.73 z"
     fill="#3f3d56"
     id="path177"
     style="fill:#008080" />
  <path
     d="m 391.5831,457.02 c 0,0 10.22,-2.11 13,-0.69 2.78,1.42 8.13,2.54 8.94,3.36 0.81,0.82 2.85,0.2 4.68,5 1.83,4.8 2,9.65 4.37,11.89 2.37,2.24 3.56,3.76 3.66,5.38 0.1,1.62 -0.31,2 0.61,2.54 0.92,0.54 2.23,2.65 1.83,3.46 -0.4,0.81 -21.14,18.7 -21.14,18.7 0,0 -1,6.81 -1.93,8.54 -0.93,1.73 1,25.51 3.05,27.13 2.05,1.62 -13.76,1.47 -13.76,1.47 0,0 -0.72,-15.6 -1.33,-16.42 -0.61,-0.82 0.41,-17.48 0.41,-17.48 0,0 0.1,-14.23 -1.22,-18 -1.32,-3.77 -1.17,-16.26 -1.17,-16.26 0,0 -1.17,-7.5 -2.59,-9.25 -1.42,-1.75 2.59,-9.37 2.59,-9.37 z"
     opacity="0.1"
     id="path179" />
  <path
     d="m 391.8831,456.71 c 0,0 10.22,-2.1 13,-0.68 2.78,1.42 8.13,2.54 8.94,3.35 0.81,0.81 2.85,0.21 4.67,5 1.82,4.79 2,9.66 4.37,11.89 2.37,2.23 3.56,3.76 3.66,5.39 0.1,1.63 -0.3,2 0.61,2.54 0.91,0.54 2.24,2.64 1.83,3.46 -0.41,0.82 -21.14,18.7 -21.14,18.7 0,0 -1,6.81 -1.93,8.53 -0.93,1.72 1,25.51 3.05,27.14 2.05,1.63 -13.72,1.47 -13.72,1.47 0,0 -0.71,-15.6 -1.32,-16.41 -0.61,-0.81 0.41,-17.48 0.41,-17.48 0,0 0.1,-14.23 -1.22,-18 -1.32,-3.77 -1.18,-16.26 -1.18,-16.26 0,0 -1.16,-7.5 -2.58,-9.25 -1.42,-1.75 2.55,-9.39 2.55,-9.39 z"
     fill="#3f3d56"
     id="path181"
     style="fill:#008080" />
  <path
     d="m 392.9631,448.1 a -20.38,20.38 0 0 0 -1.18,6.86 -23.28,23.28 0 0 1 -26.74,-10.56 -57.52,57.52 0 0 0 1,-7.58 c 0,0 31.29,-1.63 26.92,11.28 z"
     opacity="0.1"
     id="path183" />
  <path
     d="m 408.4031,432.04 a -23.22,23.22 0 1 1 -0.5,-4.84 -23.27,23.27 0 0 1 0.5,4.84 z"
     fill="#ee8e9e"
     id="path185" />
  <path
     d="m 423.3431,485.91 5.59,1.73 a -2.88,2.88 0 0 0 1.12,3 -3.39,3.39 0 0 1 1.42,3 c 0,0 0.61,2.24 2,2.75 1.39,0.51 2.33,3.86 2.33,3.86 l 4.68,5.39 c 0,0 1.73,1.42 1.42,2.13 -0.31,0.71 1.83,0.91 1.83,0.91 l -1.12,18.1 -9.65,1.82 -6,-0.61 -4.88,-1.82 -4.27,-2.55 -1.93,-5 -8.53,-13 z"
     fill="#3f3d56"
     id="path187" />
  <path
     d="m 442.3531,510.2 c 0,0 12.4,-17.89 21.65,-8.23 9.25,9.66 -3.76,25.3 -6.81,24.79 -3.05,-0.51 -17.59,-1.32 -17.59,-1.32 z"
     fill="#ee8e9e"
     id="path189" />
  <path
     d="m 407.9031,427.2 a -2.82,2.82 0 0 0 -1.71,0.77 c -0.78,0.83 -0.82,2.3 -1.85,2.82 a -2.16,2.16 0 0 1 -1.21,0.14 c -2.7,-0.39 -4.26,-3.44 -6.86,-4.28 a -7,7 0 0 0 -4.55,0.39 -3.46,3.46 0 0 0 -1.5,1 c -0.87,1.13 -0.26,2.78 -0.66,4.14 -0.56,1.89 -2.81,2.64 -4.77,2.88 -1.96,0.24 -4.15,0.39 -5.45,1.86 a -5,5 0 0 0 -1,3.93 -3.14,3.14 0 0 1 0,1.46 c -0.54,1.52 -3.18,1.3 -3.87,0.09 -0.5,-0.87 -0.35,-1.6 -1.53,-1.84 a -5,5 0 0 0 -2.49,0.43 -18.11,18.11 0 0 1 -6.44,1 -23.28,23.28 0 1 1 43.84,-14.74 z"
     opacity="0.1"
     id="path191" />
  <path
     d="m 378.3931,441.67 a -3.14,3.14 0 0 0 0,-1.46 -5,5 0 0 1 1,-3.93 c 1.3,-1.47 3.5,-1.61 5.45,-1.86 1.95,-0.25 4.21,-1 4.77,-2.88 0.4,-1.36 -0.21,-3 0.66,-4.14 a -3.35,3.35 0 0 1 1.5,-1 -7,7 0 0 1 4.55,-0.4 c 2.6,0.84 4.16,3.89 6.86,4.28 a -2.17,2.17 0 0 0 1.21,-0.14 c 1,-0.52 1.07,-2 1.85,-2.82 1.24,-1.31 3.58,-0.47 5.09,-1.44 a -4.63,4.63 0 0 0 1.64,-3 -14.57,14.57 0 0 0 0.45,-6.74 c -0.88,-3.78 -4.26,-6.37 -6.42,-9.6 -2,-3 -3.14,-6.81 -6.16,-8.81 -3.02,-2 -6.9,-1.54 -10.31,-0.53 a -28.86,28.86 0 0 1 -4.83,1.27 c -2.74,0.34 -5.5,-0.41 -8.27,-0.5 a -17.72,17.72 0 0 0 -10.92,3.32 -6,6 0 0 0 -1.78,1.8 -9.08,9.08 0 0 0 -0.8,3.24 -16.44,16.44 0 0 1 -2.14,5.94 c -0.86,1.43 -1.93,2.73 -2.7,4.21 a -6.43,6.43 0 0 0 -0.73,4.81 c 0.26,0.84 0.77,1.59 1,2.45 0.45,2 -0.86,3.88 -1.75,5.71 a -10.78,10.78 0 0 0 -1.19,5.42 -6.84,6.84 0 0 0 2.44,4.87 -8.72,8.72 0 0 0 5.15,1.56 -18.33,18.33 0 0 0 6.57,-1 -5,5 0 0 1 2.48,-0.43 c 1.19,0.24 1,1 1.54,1.84 0.61,1.26 3.25,1.48 3.79,-0.04 z"
     fill="#3f3d56"
     id="path193" />
  <path
     d="m 390.9231,572.9 -13.11,-10.26 -20.63,-20.33 6.81,-0.3 a -4.44,4.44 0 0 1 1.44,2.77 c 0.1,2.49 5.57,0.18 8.42,1.6 2.85,1.42 16.77,19.24 19.19,19.12 2.42,-0.12 4.37,-1.23 5.38,0.49 l 0.08,0.12 a -2.89,2.89 0 0 0 1.55,0.92 z"
     opacity="0.1"
     id="path195" />
  <path
     d="m 417.3531,572.19 -6.59,21 -1,3.3 -3.14,-0.86 -6.92,-1.9 -30.8,-8.46 a -26.72,26.72 0 0 1 -11.09,-3 -33.53,33.53 0 0 0 -19.14,-4.18 c -4.07,0.38 -8.6,-1.37 -12.36,-8.32 0,0 -8.53,-25.2 13,-32.41 21.53,-7.21 22.58,3.83 22.58,3.83 l 0.29,0.18 c 0.84,0.53 3.18,2.21 3.27,4.25 0.1,2.48 5.57,0.17 8.42,1.59 2.85,1.42 16.75,19.32 19.17,19.21 2.42,-0.11 4.37,-1.24 5.38,0.49 a -1,1 0 0 0 0.08,0.11 c 0.75,1 3,1.28 4.51,1.32 0.82,0 1.41,0 1.41,0 l 0.19,0.06 1.56,0.46 z"
     fill="#65617d"
     id="path197" />
  <path
     d="m 415.6431,531.34 -3.17,0.51 -1.32,-13.11 c 0,0 1.45,-0.22 3.27,-0.64 -0.48,1.82 0.62,8.9 1.22,13.24 z"
     opacity="0.1"
     id="path199" />
  <path
     d="m 332.5431,470.08 c 0,0 -9.45,-2.74 -7.12,24.09 2.33,26.83 19.82,43.8 19.82,43.8 0,0 20.13,8.84 29.17,7.42 9.04,-1.42 15.63,-1.73 15.63,-1.73 a -23.13,23.13 0 0 1 9.15,-2.44 c 5.08,-0.2 15.75,-3.35 16,-4.37 0.25,-1.02 -2.65,-15.95 -1.43,-17.07 0,0 -14.23,0.58 -15.65,1.61 -1.42,1.03 -3.45,0.29 -5,0 -1.55,-0.29 -6.2,-4.35 -15.45,-0.8 0,0 -3.15,0.31 -4.37,-0.51 a -4.38,4.38 0 0 0 -3.18,-0.2 -8.74,8.74 0 0 1 -2.2,-1.12 c -0.31,-0.4 -2.75,0 -2.75,0 a -1.08,1.08 0 0 1 -1.52,-0.71 -6.66,6.66 0 0 0 -1.42,-2.23 c 0,0 -2.75,-15.45 -7.93,-21.24 a -3.32,3.32 0 0 1 -1.12,-2.95 c 0.41,-1.63 -8.43,-24.83 -20.63,-21.55 z"
     opacity="0.1"
     id="path201" />
  <path
     d="m 406.1931,568.85 -13.42,16.25 -0.09,-0.1 c -0.1,-0.3 -1.42,-3.76 -1.11,-4 0.31,-0.24 2.64,-5.29 7.32,-7.42 a -13.93,13.93 0 0 0 5.74,-5.23 z"
     opacity="0.1"
     id="path203" />
  <path
     d="m 406.0431,596.96 -1.47,0.84 c 0,0 -3.4,-2.73 -6.79,-5.48 -3.39,-2.75 -6.68,-5.44 -6.73,-5.59 -0.1,-0.31 -1.42,-3.76 -1.11,-4 0.16,-0.1 0.85,-1.51 2.14,-3.14 9.1,-2.55 3.3,3.77 2.53,4.06 0,0 11.08,-2.54 11.69,9.52 a -14.4,14.4 0 0 1 -0.26,3.79 z"
     opacity="0.1"
     id="path205" />
  <path
     d="m 394.7931,602.07 -1.94,1.12 -19.61,0.51 a -39.61,39.61 0 0 1 -6.94,3.34 -6.44,6.44 0 0 1 -1,0.22 -45.73,45.73 0 0 1 -5.47,0.1 c -1.5,0 -2.66,-0.1 -2.66,-0.1 0,0 0.93,-24.74 1.63,-27.34 0.33,-1.25 2,-1 3.6,-0.35 a -23.21,23.21 0 0 1 3.51,1.78 c 0,0 8.33,0.8 9.66,1.52 1.33,0.72 5.08,-0.41 7.42,0 2.34,0.41 6.5,-2.75 6.5,-2.75 11.38,-3.76 5,3.25 4.17,3.56 0,0 11.07,-2.54 11.68,9.52 0.61,12.06 -10.55,8.87 -10.55,8.87 z"
     fill="#3f3d56"
     id="path207" />
  <path
     d="m 366.4331,592.52 c -0.21,5.12 -4.2,11.48 -6.59,14.84 -1.5,0 -2.66,-0.1 -2.66,-0.1 0,0 0.93,-24.74 1.63,-27.34 0.33,-1.25 2,-1 3.6,-0.35 1.97,3.69 4.19,8.82 4.02,12.95 z"
     fill="#565387"
     id="path209" />
  <path
     d="m 366.4331,592.52 c -0.21,5.12 -4.2,11.48 -6.59,14.84 -1.5,0 -2.66,-0.1 -2.66,-0.1 0,0 0.93,-24.74 1.63,-27.34 0.33,-1.25 2,-1 3.6,-0.35 1.97,3.69 4.19,8.82 4.02,12.95 z"
     opacity="0.1"
     id="path211" />
  <path
     d="m 369.7831,593.2 c -1.35,4.94 -1.33,10.49 -3.48,13.84 a -6.44,6.44 0 0 1 -1,0.22 -45.73,45.73 0 0 1 -5.47,0.1 c -1.5,0 -2.66,-0.1 -2.66,-0.1 0,0 0.93,-24.74 1.63,-27.34 0.33,-1.25 2,-1 3.6,-0.35 a -23.21,23.21 0 0 1 3.51,1.78 c 0,0 5.6,5.52 3.87,11.85 z"
     opacity="0.05"
     id="path213" />
  <path
     d="m 437.4531,543.06 c 0,0 -9.74,3.16 -18,14.39 z"
     opacity="0.1"
     id="path215" />
  <g
     opacity="0.1"
     id="g221"
     transform="matrix(-1,0,0,1,818.4431,0)">
    <path
       d="m 496.76,554.3 -0.06,0.22 a 6.85,6.85 0 0 1 -0.34,0.85 6,6 0 0 1 0.4,-1.07 z"
       transform="translate(-36.6,-133.2)"
       id="path217" />
    <path
       d="m 441.64,549.37 a 9.14,9.14 0 0 1 0.75,-2 c -0.05,0.17 -0.1,0.35 -0.14,0.53 a 14.58,14.58 0 0 0 0.45,6.74 4.63,4.63 0 0 0 1.64,3 c 1.51,1 3.85,0.13 5.08,1.43 0.79,0.83 0.83,2.31 1.85,2.82 a 2,2 0 0 0 1.22,0.14 c 2.7,-0.38 4.26,-3.43 6.86,-4.27 a 6.86,6.86 0 0 1 4.54,0.39 3.35,3.35 0 0 1 1.51,1 c 0.87,1.12 0.26,2.78 0.66,4.14 0.56,1.88 2.81,2.63 4.76,2.88 1.95,0.25 4.15,0.38 5.46,1.86 a 4.92,4.92 0 0 1 1,3.93 3.23,3.23 0 0 0 0,1.45 c 0.54,1.53 3.18,1.3 3.87,0.1 0.5,-0.88 0.35,-1.6 1.53,-1.85 a 5.1,5.1 0 0 1 2.49,0.43 18.31,18.31 0 0 0 6.57,1 8.86,8.86 0 0 0 5.15,-1.56 6.15,6.15 0 0 0 1.58,-1.93 6.5,6.5 0 0 1 -2.19,3.45 8.72,8.72 0 0 1 -5.15,1.56 18.3,18.3 0 0 1 -6.57,-1 5,5 0 0 0 -2.49,-0.43 c -1.18,0.24 -1,1 -1.53,1.84 -0.69,1.21 -3.33,1.43 -3.87,-0.09 a 3.27,3.27 0 0 1 0,-1.46 4.92,4.92 0 0 0 -1,-3.93 c -1.31,-1.47 -3.5,-1.61 -5.46,-1.86 -1.96,-0.25 -4.2,-1 -4.76,-2.88 -0.4,-1.36 0.21,-3 -0.66,-4.14 a 3.35,3.35 0 0 0 -1.5,-1 7,7 0 0 0 -4.55,-0.4 c -2.6,0.84 -4.16,3.89 -6.86,4.28 a 2.2,2.2 0 0 1 -1.22,-0.14 c -1,-0.52 -1.06,-2 -1.85,-2.82 -1.23,-1.31 -3.57,-0.47 -5.08,-1.44 a 4.63,4.63 0 0 1 -1.64,-3 14.57,14.57 0 0 1 -0.45,-6.77 z"
       transform="translate(-36.6,-133.2)"
       id="path219" />
  </g>
  <path
     d="m 356.7131,497.52 c 1.86,2.51 4,4.84 5.63,7.5 a -14.23,14.23 0 0 1 2.47,8.87 c -1.7,-1.75 -2.48,-4.17 -3.56,-6.36 -1.82,-3.72 -4.54,-6.87 -6.83,-10.28 -0.44,-0.65 -3.25,-4.42 -1.83,-4.6 1.17,-0.15 3.45,4.01 4.12,4.87 z"
     opacity="0.1"
     id="path223" />
  <path
     d="m 408.1631,456.48 -20.37,38.52 c -0.61,1.14 1.05,3.21 3.7,4.62 l 101.67,53.77 c 2.65,1.4 5.3,1.61 5.9,0.46 l 20.37,-38.51 c 0.61,-1.15 -0.92,-3.46 -3.57,-4.86 l -101.67,-53.77 c -2.66,-1.41 -5.43,-1.38 -6.03,-0.23 z"
     fill="#ffffff"
     id="path225" />
  <g
     opacity="0.2"
     id="g229"
     transform="matrix(-1,0,0,1,818.4431,0)">
    <path
       d="m 446.88,589.68 20.37,38.52 c 0.61,1.14 -1.05,3.21 -3.7,4.62 l -101.67,53.77 c -2.65,1.4 -5.3,1.61 -5.9,0.46 l -20.37,-38.51 c -0.61,-1.15 0.92,-3.46 3.57,-4.86 l 101.67,-53.77 c 2.66,-1.41 5.43,-1.38 6.03,-0.23 z"
       transform="translate(-36.6,-133.2)"
       fill="#0b75ce"
       id="path227" />
  </g>
  <rect
     x="-644.89386"
     y="225.71939"
     width="59.91"
     height="2.1099999"
     transform="matrix(-0.88401052,-0.46746701,-0.46746701,0.88401052,0,0)"
     fill="#0b75ce"
     id="rect231" />
  <rect
     x="-644.89526"
     y="230.88203"
     width="59.91"
     height="2.1099999"
     transform="matrix(-0.88401052,-0.46746701,-0.46746701,0.88401052,0,0)"
     fill="#0b75ce"
     opacity="0.2"
     id="rect233" />
  <rect
     x="-644.89203"
     y="236.02582"
     width="59.91"
     height="2.1099999"
     transform="matrix(-0.88401052,-0.46746701,-0.46746701,0.88401052,0,0)"
     fill="#0b75ce"
     opacity="0.2"
     id="rect235" />
  <rect
     x="-644.89343"
     y="241.18846"
     width="59.91"
     height="2.1099999"
     transform="matrix(-0.88401052,-0.46746701,-0.46746701,0.88401052,0,0)"
     fill="#0b75ce"
     opacity="0.2"
     id="rect237" />
  <path
     d="m 493.5131,511.02 a -14.2,14.2 0 0 1 -5.26,26.69 l 1.12,-2.12 a -3.23,3.23 0 0 0 -1,-4.16 -5.63,5.63 0 0 1 -8.74,-4.62 -3.24,3.24 0 0 0 -4,1.5 l -1.15,2.18 a -14.2,14.2 0 0 1 19.05,-19.47 z m -13.63,12.41 a -0.76,0.76 0 0 0 0.05,0.3 -0.84,0.84 0 0 0 0.3,0.32 l 0.25,0.14 a -5.64,5.64 0 1 0 11.16,1 h 0.07 a -1.89,1.89 0 0 0 1.05,-2.4 -3.61,3.61 0 0 0 -0.83,-0.92 -5.21,5.21 0 0 1 -1.56,-3.38 -6,6 0 0 0 -0.37,0.77 -1.26,1.26 0 0 0 -1.54,-0.89 -4.22,4.22 0 0 1 -0.72,0.27 -1.64,1.64 0 0 1 -0.65,-0.13 l -1.33,-0.51 a -2,2 0 0 0 -2.62,0.36 -14.5,14.5 0 0 0 -2.22,2.21 -4.79,4.79 0 0 0 -1.04,2.86 z"
     fill="#0b75ce"
     opacity="0.2"
     id="path239" />
  <path
     d="m 450.3831,513.96 c 0.1,13.41 -27.65,16.26 -27.65,16.26 l -7.09,1.12 -3.17,0.51 -1.32,-13.11 c 0,0 1.45,-0.22 3.27,-0.64 2.68,-0.63 6.16,-1.71 6.89,-3.23 1.22,-2.54 28.97,-14.33 29.07,-0.91 z"
     fill="#ee8e9e"
     id="path241" />
  <path
     d="m 332.7931,468.02 c 0,0 -9.45,-2.74 -7.12,24.09 2.33,26.83 19.82,43.8 19.82,43.8 0,0 20.13,8.84 29.17,7.42 9.04,-1.42 15.65,-1.73 15.65,-1.73 a -23.13,23.13 0 0 1 9.15,-2.44 c 5.08,-0.2 15.75,-3.35 16,-4.37 0.25,-1.02 -2.65,-16 -1.43,-17.07 0,0 -14.23,0.58 -15.65,1.61 -1.42,1.03 -3.45,0.29 -5,0 -1.55,-0.29 -6.2,-4.36 -15.45,-0.8 0,0 -3.15,0.31 -4.37,-0.51 a -4.38,4.38 0 0 0 -3.18,-0.2 -8.74,8.74 0 0 1 -2.2,-1.12 c -0.31,-0.4 -2.75,0 -2.75,0 a -1.07,1.07 0 0 1 -1.52,-0.71 -6.76,6.76 0 0 0 -1.42,-2.24 c 0,0 -2.75,-15.44 -7.93,-21.24 a -3.29,3.29 0 0 1 -1.12,-2.94 c 0.39,-1.63 -8.46,-24.77 -20.65,-21.55 z"
     fill="#3f3d56"
     id="path243"
     style="fill:#008080" />
  <path
     d="M914.76,269.34v56c0,1.67-3.12,3-7,3H760c-3.86,0-7-1.35-7-3v-56c0-1.67,3.12-3.37,7-3.37H907.78C911.64,266,914.76,267.67,914.76,269.34Z"
     transform="translate(-36.6 -133.2)"
     fill="#fff"
     id="path245" />
  <g
     opacity="0.1"
     id="g249">
    <path
       d="M897.45,279.53v56c0,1.66-3.13,3-7,3H742.72c-3.86,0-7-1.36-7-3v-56c0-1.67,3.12-3.37,7-3.37H890.47C894.32,276.16,897.45,277.86,897.45,279.53Z"
       transform="translate(-36.6 -133.2)"
       fill="#0b75ce"
       id="path247" />
  </g>
  <path
     d="M914.76,269.34v56c0,1.67-3.12,3-7,3H760c-3.86,0-7-1.35-7-3v-56c0-1.67,3.12-3.37,7-3.37H907.78C911.64,266,914.76,267.67,914.76,269.34Z"
     transform="translate(-36.6 -133.2)"
     fill="#fff"
     id="path251" />
  <g
     opacity="0.2"
     id="g255">
    <path
       d="M914.76,269.34v56c0,1.67-3.12,3-7,3H760c-3.86,0-7-1.35-7-3v-56c0-1.67,3.12-3.37,7-3.37H907.78C911.64,266,914.76,267.67,914.76,269.34Z"
       transform="translate(-36.6 -133.2)"
       fill="#0b75ce"
       id="path253" />
  </g>
  <rect
     x="787.42"
     y="152.77"
     width="76.96"
     height="2.72"
     fill="#0b75ce"
     id="rect257" />
  <rect
     x="787.42"
     y="159.39"
     width="76.96"
     height="2.72"
     fill="#0b75ce"
     opacity="0.2"
     id="rect259" />
  <rect
     x="787.42"
     y="166.01"
     width="76.96"
     height="2.72"
     fill="#0b75ce"
     opacity="0.2"
     id="rect261" />
  <rect
     x="787.42"
     y="172.63"
     width="76.96"
     height="2.72"
     fill="#0b75ce"
     opacity="0.2"
     id="rect263" />
  <path
     d="M785.09,280A18.25,18.25,0,0,0,775,313.48v-3.09a4.16,4.16,0,0,1,3.65-4.11,7.24,7.24,0,0,0,12.7,0,4.16,4.16,0,0,1,3.65,4.11v3.17A18.25,18.25,0,0,0,785.09,280Zm8,22.27a.79.79,0,0,1-.77.49,2.3,2.3,0,0,1-.37,0,7.24,7.24,0,0,1-14.18-2.06,7.16,7.16,0,0,1,.94-3.56l-.08-.05a2.42,2.42,0,0,1,.24-3.35,4.91,4.91,0,0,1,1.5-.55,6.65,6.65,0,0,0,3.8-2.9,6.79,6.79,0,0,1,0,1.1,1.61,1.61,0,0,1,2.29-.08c.23.23.38.55.66.73a1.73,1.73,0,0,0,.81.23l1.81.24a2.56,2.56,0,0,1,2.76,2,17.51,17.51,0,0,1,1.19,3.85A6.08,6.08,0,0,1,793.11,302.28Z"
     transform="translate(-36.6 -133.2)"
     fill="#0b75ce"
     opacity="0.2"
     id="path265" />
  <path
     d="M961.57,727.42c-1.38-5-2.28-9.38-2.28-9.38s.06-5.49-2.56-9.51l-.05-1.37h0L956.28,697a34.22,34.22,0,0,1,2.36-5.4c1.7-3.25-.57-14.85-.57-14.85s-7.4-16.19-6.15-26.68-15.67-45.79-15.67-45.79A46,46,0,0,1,937.32,594a8.18,8.18,0,0,0,.11-2.16,2.26,2.26,0,0,0,0-.26s0,0,0,.08c-.5-6.87-6.43-19.55-6.43-19.55l-.22-24.61s2.92-14.63-3.5-33.86c-2.24-6.71-3.71-12.1-4.67-16.26-.11-.47-.22-.92-.31-1.36,11.59-2.22,20.43-4,20.43-4s-7.84-28-12.6-32.8-9-20.19-9-20.19-3.14-19.89.47-25.87S925.35,397,925.35,397s8.52-6.71,9.51-9.58,2.57-9.31,2.44-12.66-1.34-6.33-1-8.11-2.89-8.39-1.55-11.63a8.62,8.62,0,0,0,.47-3.09v-.13a43.13,43.13,0,0,0-1.09-8.26,23.54,23.54,0,0,0-8.86-4.31l-.22-.75-.57-2c-.3-.18-.59-.34-.88-.48l0-.72-.19-2.87,1.12-6.51c2.27-11.33-12.78-12.43-12.78-12.43a7.82,7.82,0,0,0-4.38-3.55c-3.06-1,.14,16.91,1.6,18,1.09.82,4.58,6.32,6.26,9h0l.28.44a6.82,6.82,0,0,0-.66.75l.72,3.87.11.6a15.68,15.68,0,0,0-2.23,4.16s2.85,2.9,2.43,6.28,1.13,7.52,1.21,7.74c-.17-.18-2.18-2.19-4.08-1.6s-7.23,2.4-7.23,2.4-4,.86-3.59,1.73-2.55,4.88-2.55,4.88l-11.2-9.82c-.12-.3-.24-.6-.35-.91a25.63,25.63,0,0,1-1.11-4.45,24.33,24.33,0,0,0,3.41-1.23,7.47,7.47,0,0,0,2.92-2c1-1.33,1.18-3.1,1.56-4.72.73-3.18,2.46-6.05,3.66-9.09A29.07,29.07,0,0,0,900,319.89a10.66,10.66,0,0,0-1.84-4.63c-1.86-2.36-5.09-3.23-7.49-5.07s-4-4.74-6.78-6.09c-2.5-1.22-5.48-1-8.22-.39a43.87,43.87,0,0,0-15.1,6.15c-1.53,1-3.22,2.14-5,1.88-1.56-.22-2.74-1.42-3.79-2.57a.83.83,0,0,1,0-.15l-.13-.13a19.09,19.09,0,0,0-1.36,8.14c0,.43,0,.86.1,1.29,0,.15,0,.3,0,.45a2.41,2.41,0,0,1,0,.38v0a2.29,2.29,0,0,1-.06.58,4.16,4.16,0,0,1-1,1.49,9,9,0,0,0-.84,1.24c0-.15.08-.3.13-.45a6.32,6.32,0,0,0-1,3.45,3.4,3.4,0,0,0,.9,2.41,11.76,11.76,0,0,0,1.82,1.35,19.53,19.53,0,0,0-.19,3.6,20.91,20.91,0,0,0,10.86,17.43c.14.3.27.6.41.91,1.52,3.58,2.72,7.77,2.41,11.7,0,.29-.06.58-.1.86s-.26.31-.37.47h0s-17.83.86-22.17-2.78-10.24,9.69-10.24,9.69-6.34,1.49-7.67.3-8.78.16-8.78.16a16.08,16.08,0,0,0-11.29-3.64,33.09,33.09,0,0,0-8.36-4.23h0l-.21-.06h0a9.18,9.18,0,0,0-4-.36s-9.05-6.91-11.76-10.7-15.44-17.75-15.5-17.82l-.07-.69-.22-2.1a7.55,7.55,0,0,1-1.09.14l-.27-.72a38.49,38.49,0,0,0-2.82-5.84s-.1-2.66.65-3.35-.72-10.38-.72-10.38-8.61-18.17-15.16-4.1c0,0-13,9.44-1.41,19.39,0,0,4.57,2,5.27,3.7.46,1.1,2.1,4.16,3.2,6.19.18.34.35.64.49.91l-.12.11.23,1.73.09.67c-2.06,1.28-3.45,2.53-3.07,3.42a19.33,19.33,0,0,1,1.46,4.72s16.28,18.85,18.61,27.09c0,0,42.6,23.15,56.37,24.39L823,412.47a98.66,98.66,0,0,0-.16,10.1c.28,2.65-1.08,14.74-1.08,14.74s-1.7,17.77-3.61,20.33S817,470.78,817,470.78a89.34,89.34,0,0,1-2.16,15.14c-1.75,6.79,0,15.05,0,15.05s-6.33,16.18,9.88,4.75c0,0,8.14-.82,17.52-1.5,0,.31,0,.62,0,.94,0,1.21.06,2.52.1,3.9.22,9.12.65,21.68,1.43,31.17C845.16,557,851.55,590,851.55,590l.64,16.7a22.94,22.94,0,0,0-.29,4.79A31,31,0,0,0,857,628.08l1.71,11.08s3.28,7.23,3.51,11.61a6,6,0,0,1-.09,1.07,7.4,7.4,0,0,0-.08,1.71c0,5.06,3.54,17.05,3.54,17.05s.65,12.19,2.5,12.83c1.59.54-1.81,7.11-2.83,9a3.59,3.59,0,0,1-.08-.35c-.13.25-.21.38-.21.38a8.69,8.69,0,0,0-.45,3.11,4.42,4.42,0,0,0,2.19,4.21c3.55,2,5.48,3.68,2.57,4.5a31,31,0,0,0-3.2.81c0-.14-.12-.28-.17-.41a2,2,0,0,0-1.12,2.18,9.2,9.2,0,0,0,1.25,4.1c3.18,6.43,5.3,8.83,5.3,8.83l1.39-.21a7.27,7.27,0,0,1-.75,1.54,5.93,5.93,0,0,1-2,1.91,6.31,6.31,0,0,1-2.46,1,7,7,0,0,0-5.08,2.72c-1.73,2.42-2.75,5.68,1,8.36l13.24,4s22.58,2.06,21.19-2.94-2.28-9.38-2.28-9.38a20,20,0,0,0-2.17-8.87,11,11,0,0,0-.84-1.29l.79-.12s1.21-11.2,3.32-13.41c.49-.5.59-.88.46-1.17.2-.62-.38-1-1.13-1.12,0,.14-.09.29-.14.44a11.21,11.21,0,0,0-2.19-.16s-1-5.8,1.34-8a2.24,2.24,0,0,0,.39-1.75,9.47,9.47,0,0,0-.34-2.36.61.61,0,0,0-.07.14c-1.41-5.25-5.78-13.51-5.78-13.51s-.38-5.3,1-7.47-1.3-28.82-1.3-28.82.06-12.93-1.82-18.87,1.51-13.16,1.51-13.16,0-.14-.06-.39l0-.09s-.11-.79-.29-2a.65.65,0,0,1,0,.13c-.49-3.4-1.43-9.56-2-12.41-.89-4-.72-23.52-.72-23.52l3-8.44,6.4,14.1,6.95,18.86s3.23,3.91,3.46,8c0,.2,0,.4,0,.6a11,11,0,0,0,0,1.28,11.38,11.38,0,0,0,2.15,6.72s2,9,4.64,11.16,2.82,6.62,2.82,6.62,3.61,13,5.16,15.21c1.3,1.89,1.57,7.21,1.62,8.84h0c0,.3,0,.48,0,.48s.62,4.66.75,8.59c0,.48,0,1,0,1.4,0,0,0-.07,0-.1a14.23,14.23,0,0,1-.26,3.19c0,.06,0,.12,0,.19q0-.35,0-.66a33.61,33.61,0,0,0-.62,8.18c.1,4.71,1,10.25,4,13.41,5.15,5.47,8.23,4.64,8.23,4.64s-2.1,7.16-5,8.69a2.11,2.11,0,0,0-.31.21c0-.13-.06-.27-.08-.4a3.42,3.42,0,0,0-.76,2.66c-.09,3.12,2.07,8.1,4,10.35a5.82,5.82,0,0,0,2.52,1.34,4.91,4.91,0,0,1-.44.31,9.45,9.45,0,0,1-1,.51,4.9,4.9,0,0,1-1.48.44,7.05,7.05,0,0,0-5.08,2.72c-1.72,2.42-2.75,5.67,1,8.36l13.24,4S963,732.42,961.57,727.42Z"
     transform="translate(-36.6 -133.2)"
     fill="url(#ffba99e4-d350-4cb7-a6ec-0715674198cb)"
     id="path267" />
  <path
     d="M876.07,739.07l-12.82-4c-3.59-2.69-2.6-5.95-.93-8.37a6.75,6.75,0,0,1,4.91-2.71,6,6,0,0,0,2.38-1,5.6,5.6,0,0,0,1.93-1.91,9.36,9.36,0,0,0,1.26-4.94s13.72-4.6,17.68-.68a10.68,10.68,0,0,1,1.78,2.4,20.65,20.65,0,0,1,2.11,8.88s.88,4.38,2.22,9.38S876.07,739.07,876.07,739.07Z"
     transform="translate(-36.6 -133.2)"
     fill="#2d293d"
     id="path269" />
  <path
     d="M937.71,730.46l-12.81-4c-3.6-2.68-2.61-5.94-.94-8.35a6.68,6.68,0,0,1,4.91-2.71,5,5,0,0,0,1.43-.45,8.26,8.26,0,0,0,1-.51c3.47-2.08,3.19-6.85,3.19-6.85s13.73-4.6,17.68-.68a9.78,9.78,0,0,1,1.4,1.75c2.54,4,2.49,9.52,2.49,9.52s.88,4.4,2.22,9.39S937.71,730.46,937.71,730.46Z"
     transform="translate(-36.6 -133.2)"
     fill="#2d293d"
     id="path271" />
  <path
     d="M890.48,715.5a10.68,10.68,0,0,1,1.78,2.4h0l-20.72,3.21a9.36,9.36,0,0,0,1.26-4.94S886.52,711.58,890.48,715.5Z"
     transform="translate(-36.6 -133.2)"
     opacity="0.1"
     id="path273" />
  <path
     d="M953.52,708.64l.15,3.9c-3,5.46-18.72,4.89-23.37,2.39a8.26,8.26,0,0,0,1-.51c3.47-2.08,3.19-6.85,3.19-6.85s13.73-4.6,17.68-.68A9.78,9.78,0,0,1,953.52,708.64Z"
     transform="translate(-36.6 -133.2)"
     opacity="0.1"
     id="path275" />
  <path
     d="M955.35,691.76a34.32,34.32,0,0,0-2.27,5.4l.53,14c-3.31,6-21.77,4.74-24.37,1.65s-5.57-11.29-2.79-12.82,4.8-8.68,4.8-8.68-3,.82-8-4.65-4.06-18.08-3.29-21.12-.51-13.09-.51-13.09-.09-7.08-1.59-9.32-5-15.21-5-15.21-.17-4.42-2.73-6.63-4.5-11.16-4.5-11.16a11.6,11.6,0,0,1-2.06-7.53c.36-4.44-3.36-9.08-3.36-9.08l-6.75-18.86-6.21-14.11L884.4,569s-.14,19.48.73,23.52,2.34,14.78,2.34,14.78-3.27,7.21-1.44,13.16,1.79,18.88,1.79,18.88,2.61,26.63,1.28,28.81-1,7.47-1,7.47,7.85,15.28,5.63,17.49-1.29,8-1.29,8,5-.19,2.92,2-3.21,13.41-3.21,13.41l-21.28,3.3s-2.06-2.4-5.14-8.84.31-5.85,3.13-6.67,1-2.51-2.49-4.51-1.68-6.84-1.68-6.84,4.79-8.86,3-9.5-2.44-12.83-2.44-12.83-4.09-14.36-3.36-18.29-3.34-13.15-3.34-13.15l-1.66-11.09a30.64,30.64,0,0,1-4.7-20.89L851.57,590s-6.23-33-7.58-49.82c-.87-10.74-1.31-25.42-1.51-34.59-.11-5.14-.15-8.55-.15-8.55l76.07-10.89a63.52,63.52,0,0,0,1.82,11.29c.94,4.16,2.37,9.55,4.55,16.26,6.23,19.24,3.43,33.87,3.43,33.87l.24,24.6s7.35,16.18,6.15,21.9a47.55,47.55,0,0,0-1,10.31s16.41,35.31,15.22,45.8,6,26.69,6,26.69S957,688.51,955.35,691.76Z"
     transform="translate(-36.6 -133.2)"
     fill="#65617d"
     id="path277" />
  <path
     d="M908.13,601.32l23.13-4S918.61,611.28,908.13,601.32Z"
     transform="translate(-36.6 -133.2)"
     opacity="0.05"
     id="path279" />
  <path
     d="M927,574.74s1.11,8.19-3.81,11.48C923.22,586.22,932.19,584.46,927,574.74Z"
     transform="translate(-36.6 -133.2)"
     opacity="0.1"
     id="path281" />
  <path
     d="M924.6,548.63s-18.82,16.75-26,15.7S924.6,548.63,924.6,548.63Z"
     transform="translate(-36.6 -133.2)"
     opacity="0.1"
     id="path283" />
  <path
     d="M879.6,610s-14.63,3.92-14.84,9.86S879.6,610,879.6,610Z"
     transform="translate(-36.6 -133.2)"
     opacity="0.1"
     id="path285" />
  <path
     d="M885.69,683.55S865,688.24,871,690.66s15.83,4.18,15.83,4.18S893.56,694.93,885.69,683.55Z"
     transform="translate(-36.6 -133.2)"
     opacity="0.05"
     id="path287" />
  <g
     opacity="0.05"
     id="g311">
    <path
       d="M867,695a4.15,4.15,0,0,1-2-2.95c-.12.24-.2.38-.2.38s-1.76,4.84,1.68,6.84c.4.23.77.45,1.12.67.62-.14,1.28-.25,1.92-.44C872.26,698.73,870.39,697,867,695Z"
       transform="translate(-36.6 -133.2)"
       id="path289" />
    <path
       d="M893.77,692.59c.55-.55.48-1.91.06-3.64a9.82,9.82,0,0,0-1,5.16A4.1,4.1,0,0,1,893.77,692.59Z"
       transform="translate(-36.6 -133.2)"
       id="path291" />
    <path
       d="M887.17,604.75a24,24,0,0,0-1.16,6.56,25.51,25.51,0,0,1,1.45-4.53S887.35,606,887.17,604.75Z"
       transform="translate(-36.6 -133.2)"
       id="path293" />
    <path
       d="M934.58,593.63a7.86,7.86,0,0,0,.12-1.94c-.21,1.33-.35,2.56-.44,3.64C934.36,594.78,934.46,594.21,934.58,593.63Z"
       transform="translate(-36.6 -133.2)"
       id="path295" />
    <path
       d="M889.09,667.62a11.24,11.24,0,0,0,.37-3.94,13.31,13.31,0,0,0-.82,5A4.81,4.81,0,0,1,889.09,667.62Z"
       transform="translate(-36.6 -133.2)"
       id="path297" />
    <path
       d="M894.75,700.8a69.59,69.59,0,0,0-2,11l-21.28,3.3s-2.05-2.4-5.13-8.83c-.27-.57-.49-1.08-.67-1.54-1.26.64-1.71,2,.12,5.81,3.08,6.43,5.14,8.83,5.14,8.83l21.28-3.3s1.16-11.2,3.2-13.4C896.4,701.54,895.71,701,894.75,700.8Z"
       transform="translate(-36.6 -133.2)"
       id="path299" />
    <path
       d="M865.28,670.13s.65,12.2,2.44,12.84h0c.82-2.05,1.34-4,.54-4.27-1.8-.64-2.44-12.84-2.44-12.84s-4.1-14.36-3.36-18.28-3.34-13.15-3.34-13.15l-1.67-11.09a30.64,30.64,0,0,1-4.7-20.89l-.66-17.15s-6.23-33-7.58-49.82c-.87-10.74-1.31-25.43-1.51-34.59,0-1.66-.06-3.13-.09-4.37l-.61.09s0,3.4.16,8.55c.2,9.16.64,23.85,1.5,34.59,1.36,16.77,7.59,49.82,7.59,49.82l.66,17.15a30.64,30.64,0,0,0,4.7,20.89l1.66,11.09s4.08,9.22,3.34,13.15S865.28,670.13,865.28,670.13Z"
       transform="translate(-36.6 -133.2)"
       id="path301" />
    <path
       d="M929.77,708a20.68,20.68,0,0,1-3.7-8.26c-2.11,2,.69,9.6,3.16,12.53,2.6,3.09,21.06,4.33,24.37-1.64l-.13-3.37C948.88,712.2,932.23,710.94,929.77,708Z"
       transform="translate(-36.6 -133.2)"
       id="path303" />
    <path
       d="M955.88,687a34.32,34.32,0,0,0-2.27,5.4l.09,2.48c.37-.92.9-2.15,1.64-3.61a10.73,10.73,0,0,0,.6-4.41Z"
       transform="translate(-36.6 -133.2)"
       id="path305" />
    <path
       d="M930.2,690.79a33.39,33.39,0,0,0,1.58-4.27s-3,.82-8-4.65c-3.63-4-4.13-11.75-3.83-16.85-.77,3-1.7,15.65,3.29,21.12C926.53,689.72,928.93,690.6,930.2,690.79Z"
       transform="translate(-36.6 -133.2)"
       id="path307" />
    <path
       d="M919.47,651.94a96,96,0,0,1,.76,10.46,12.91,12.91,0,0,1,.3-1.65c.77-3-.51-13.08-.51-13.08s-.1-7.08-1.6-9.33-5-15.21-5-15.21-.17-4.42-2.74-6.62-4.5-11.16-4.5-11.16a11.64,11.64,0,0,1-2.06-7.54c.36-4.44-3.36-9.07-3.36-9.07L894,569.87l-6.21-14.1-2.86,8.43s0,1,0,2.69l2.33-6.85,6.21,14.1L900.21,593s3.72,4.63,3.36,9.07a11.58,11.58,0,0,0,2.06,7.54s1.93,9,4.5,11.16,2.73,6.62,2.73,6.62,3.51,13,5,15.21S919.47,651.94,919.47,651.94Z"
       transform="translate(-36.6 -133.2)"
       id="path309" />
  </g>
  <path
     d="M921.8,326.07l-1.08,6.51.19,2.87.14,2.12-7.35,1-.89-1.5h0c-1.63-2.71-5-8.22-6.08-9-1.4-1.09-4.53-18.95-1.57-18a7.75,7.75,0,0,1,4.26,3.56S924,314.75,921.8,326.07Z"
     transform="translate(-36.6 -133.2)"
     fill="#ffcdd3"
     id="path313" />
  <path
     d="M921.05,337.57l-7.35,1-.89-1.5h0a6.52,6.52,0,0,1,8.1-1.66Z"
     transform="translate(-36.6 -133.2)"
     opacity="0.1"
     id="path315" />
  <path
     d="M923,341l-9.64,2.63-.26-1.44-.7-3.88s3.65-5.28,9.37-1.64l.56,2Z"
     transform="translate(-36.6 -133.2)"
     fill="#dce6f2"
     id="path317" />
  <path
     d="M764.91,332.82l-10.17,6s-.43-.8-1-1.92c-1.07-2-2.66-5.1-3.11-6.2-.68-1.69-5.1-3.7-5.1-3.7-11.27-10,1.34-19.39,1.34-19.39,6.32-14.06,14.67,4.12,14.67,4.12s1.44,9.69.71,10.38-.62,3.34-.62,3.34a39.3,39.3,0,0,1,2.73,5.85C764.72,332.22,764.91,332.82,764.91,332.82Z"
     transform="translate(-36.6 -133.2)"
     fill="#ffcdd3"
     id="path319" />
  <path
     d="M764.91,332.82l-10.17,6s-.43-.8-1-1.92c1.41-1.28,6.45-5.7,8.16-5.57a13.19,13.19,0,0,0,2.46,0C764.72,332.22,764.91,332.82,764.91,332.82Z"
     transform="translate(-36.6 -133.2)"
     opacity="0.1"
     id="path321" />
  <path
     d="M766.09,335.92l-11.45,6.2-.33-2.5-.23-1.73s6.54-6.05,8.55-5.91a10.82,10.82,0,0,0,3-.12l.22,2.09Z"
     transform="translate(-36.6 -133.2)"
     fill="#dce6f2"
     id="path323" />
  <path
     d="M895.16,370s-50.66,7.7-41.27,4.25c6.54-2.42,9-6.73,9.38-11.41.29-3.93-.87-8.12-2.35-11.71a51.09,51.09,0,0,0-4.9-9s38.07-22.89,31-3.14a30.94,30.94,0,0,0-1.85,9.3,26,26,0,0,0,1.36,9.29A27.8,27.8,0,0,0,895.16,370Z"
     transform="translate(-36.6 -133.2)"
     fill="#ffcdd3"
     id="path325" />
  <path
     d="M887.06,339a30.94,30.94,0,0,0-1.85,9.3c-3.54,3.22-7.57,3.17-12.73,3.37-4,.15-8.32,1.28-11.56-.51a51.09,51.09,0,0,0-4.9-9S894.09,319.26,887.06,339Z"
     transform="translate(-36.6 -133.2)"
     opacity="0.1"
     id="path327" />
  <circle
     cx="834.44"
     cy="198.81"
     r="21.06"
     fill="#ffcdd3"
     id="circle329" />
  <path
     style="display:inline;fill:none;stroke:#477c88;stroke-width:1px;stroke-linecap:butt;stroke-linejoin:miter;stroke-opacity:1"
     d="M 692.7111,410.08497 762.90583,205.9661"
     id="path649"
     inkscape:label="" />
  <path
     d="M895.16,370s-50.66,7.7-41.27,4.25c6.54-2.42,9-6.73,9.38-11.41,2.43-2.85,7.44-5,10.67-6.2a15.19,15.19,0,0,1,9.21-.5,12.83,12.83,0,0,1,3.42,1.42A27.8,27.8,0,0,0,895.16,370Z"
     transform="translate(-36.6 -133.2)"
     opacity="0.1"
     id="path331" />
  <path
     d="M923,341l-9.64,2.63-.26-1.44a8.62,8.62,0,0,1,9.23-3.56Z"
     transform="translate(-36.6 -133.2)"
     opacity="0.1"
     id="path333" />
  <path
     d="M766.09,335.92l-11.45,6.2-.33-2.5A84.76,84.76,0,0,1,765.89,334Z"
     transform="translate(-36.6 -133.2)"
     opacity="0.1"
     id="path335" />
  <path
     d="M920.22,497.48c-19.58,3.87-47.47,9-52,7.81-3.74-1-15.52-.41-25.77.34-.11-5.14-.15-8.55-.15-8.55l76.07-10.89A63.52,63.52,0,0,0,920.22,497.48Z"
     transform="translate(-36.6 -133.2)"
     opacity="0.1"
     id="path337" />
  <path
     d="M939.7,492.1s-64.46,13.63-71.51,11.78-42.71,1.82-42.71,1.82c-15.67,11.4-9.57-4.77-9.57-4.77s-1.73-8.25,0-15.05a92.45,92.45,0,0,0,2.07-15.13s-.76-10.59,1.09-13.14,3.47-20.32,3.47-20.32,1.3-12.09,1-14.74.15-10.09.15-10.09L825.49,400c-13.33-1.26-54.59-24.46-54.59-24.46-2.27-8.23-18-27.1-18-27.1a20.3,20.3,0,0,0-1.42-4.73c-1.17-2.79,14.53-9.06,14.53-9.06s12.4,14,15,17.84,11.39,10.72,11.39,10.72a8.5,8.5,0,0,1,3.91.35l.2.06h0a31.66,31.66,0,0,1,8.09,4.24,15.36,15.36,0,0,1,10.94,3.65s7.21-1.34,8.49-.15,7.43-.28,7.43-.28,5.68-13.33,9.89-9.68,21.47,2.8,21.47,2.8c2.18-3.14,7.69-5.55,11.15-6.81a15.19,15.19,0,0,1,9.21-.51,11.82,11.82,0,0,1,3.71,1.62l10.86,9.85s2.86-4,2.47-4.88,3.48-1.72,3.48-1.72,5.06-1.79,7-2.4,3.78,1.44,3.95,1.61c-.08-.22-1.57-4.45-1.18-7.74s-2.37-6.28-2.37-6.28c5.61-15.44,20.06-3.25,20.06-3.25s1.92,8.25.62,11.49,1.8,9.84,1.51,11.62.89,4.75,1,8.11-1.39,9.79-2.34,12.66-9.2,9.56-9.2,9.56-.14,10.1-3.63,16.08-.42,25.87-.42,25.87,4.14,15.42,8.75,20.2S939.7,492.1,939.7,492.1Z"
     transform="translate(-36.6 -133.2)"
     fill="#3f3d56"
     id="path339"
     style="fill:#008080" />
  <path
     d="M840.63,379.4s-2.17-5.76-4-6.22a42.43,42.43,0,0,1-5.21-2.1l1-2.22s6.71,1.56,7.85,3.47S840.63,379.4,840.63,379.4Z"
     transform="translate(-36.6 -133.2)"
     opacity="0.1"
     id="path341" />
  <path
     d="M804.6,367.86c-.29,1.78-16,4-16,4l7.65-8.29h0l.2.06h0A31.66,31.66,0,0,1,804.6,367.86Z"
     transform="translate(-36.6 -133.2)"
     opacity="0.1"
     id="path343" />
  <circle
     cx="721.54"
     cy="212.14"
     r="1.42"
     fill="#575988"
     id="circle345" />
  <circle
     cx="723.46"
     cy="214.9"
     r="1.42"
     fill="#575988"
     id="circle347" />
  <circle
     cx="725.33"
     cy="217.44"
     r="1.42"
     fill="#575988"
     id="circle349" />
  <circle
     cx="727.29"
     cy="220.2"
     r="1.42"
     fill="#575988"
     id="circle351" />
  <circle
     cx="893.95"
     cy="213.63"
     r="1.15"
     fill="#575988"
     id="circle353" />
  <circle
     cx="894.23"
     cy="216.23"
     r="1.15"
     fill="#575988"
     id="circle355" />
  <circle
     cx="894.48"
     cy="218.83"
     r="1.15"
     fill="#575988"
     id="circle357" />
  <path
     d="M842.56,427.31c-.17-.2,41.62,48.6,71.45,18.32C914,445.63,865.37,454.14,842.56,427.31Z"
     transform="translate(-36.6 -133.2)"
     opacity="0.1"
     id="path359" />
  <path
     d="M820.67,454.36s23.88-.27,26.64,6.49l.27,7.14a4.55,4.55,0,0,1-4.44.17c-2.45-1.2-17.15-8-22.1-4.25Z"
     transform="translate(-36.6 -133.2)"
     opacity="0.1"
     id="path361" />
  <path
     d="M821.12,454.34s22.83-.26,25.47,6.19l.26,6.81a4.38,4.38,0,0,1-4.25.16c-2.34-1.15-16.4-7.6-21.13-4.05Z"
     transform="translate(-36.6 -133.2)"
     fill="#656691"
     id="path363"
     style="fill:#008080" />
  <path
     d="M831.7,402.07a76.72,76.72,0,0,0,9.86,15.51,62.23,62.23,0,0,0,15,13.42S832.22,405.33,831.7,402.07Z"
     transform="translate(-36.6 -133.2)"
     opacity="0.1"
     id="path365" />
  <path
     d="M822.83,374.66s4.64,17,15.12,22.46Z"
     transform="translate(-36.6 -133.2)"
     opacity="0.1"
     id="path367" />
  <path
     d="M816.8,376.63c-.12-.32-3,13.72,14,20.76C830.83,397.39,823.62,395.25,816.8,376.63Z"
     transform="translate(-36.6 -133.2)"
     opacity="0.1"
     id="path369" />
  <path
     d="M920.49,361.1c-.26,0,8.48,5.11,10.89,7.55C931.38,368.65,925.52,360.55,920.49,361.1Z"
     transform="translate(-36.6 -133.2)"
     opacity="0.1"
     id="path371" />
  <path
     d="M866.08,351.3a3.31,3.31,0,0,0,3.75,3.15c6.43.15,13.12.18,19-2.52a7.16,7.16,0,0,0,2.81-2c1-1.33,1.14-3.09,1.51-4.72.71-3.17,2.37-6,3.54-9.08A30.07,30.07,0,0,0,898.11,320a10.74,10.74,0,0,0-1.78-4.63c-1.8-2.37-4.94-3.23-7.26-5.08s-3.89-4.75-6.57-6.1c-2.42-1.22-5.31-1-8-.4a41.76,41.76,0,0,0-14.6,6.14c-1.49,1-3.12,2.13-4.89,1.87-1.55-.23-2.71-1.48-3.75-2.65a19.61,19.61,0,0,0-1.22,9.23,4,4,0,0,1,0,1.38,4.24,4.24,0,0,1-.93,1.49c-1.51,1.9-2.39,4.85-.75,6.64.71.79,1.77,1.19,2.47,2,1.24,1.43.92,3.57,1,5.46a2.77,2.77,0,0,0,.54,1.85,2.73,2.73,0,0,0,2.62.52,7.07,7.07,0,0,1,2.75-.37,4.58,4.58,0,0,1,2.48,1.76C863.35,342.72,864.66,346.82,866.08,351.3Z"
     transform="translate(-36.6 -133.2)"
     fill="#2d293d"
     id="path373" />
  <g
     opacity="0.1"
     id="g379">
    <path
       d="M892.25,348.25a7.17,7.17,0,0,1-2.82,2c-5.84,2.7-12.52,2.68-18.95,2.52a3.31,3.31,0,0,1-3.76-3.14c-1.41-4.49-2.73-8.59-5.84-12.24a4.6,4.6,0,0,0-2.47-1.76,7.31,7.31,0,0,0-2.76.37,2.73,2.73,0,0,1-2.62-.52,2.83,2.83,0,0,1-.54-1.85c0-1.89.28-4-1-5.46-.69-.8-1.76-1.2-2.47-2a4.16,4.16,0,0,1-.57-4.21c-1.05,1.83-1.45,4.14-.08,5.65.71.78,1.78,1.18,2.47,2,1.24,1.43.93,3.57,1,5.47a2.76,2.76,0,0,0,.54,1.84,2.7,2.7,0,0,0,2.62.52,7.28,7.28,0,0,1,2.76-.37,4.65,4.65,0,0,1,2.47,1.76c3.11,3.66,4.42,7.75,5.84,12.24a4.45,4.45,0,0,0,1.75,2.78,4.51,4.51,0,0,0,2,.37c6.43.15,13.12.17,19-2.53a7.25,7.25,0,0,0,2.82-2,5.72,5.72,0,0,0,.84-1.74A2.9,2.9,0,0,1,892.25,348.25Z"
       transform="translate(-36.6 -133.2)"
       id="path375" />
    <path
       d="M850.13,319.17a3,3,0,0,0,.6-1.09,3.77,3.77,0,0,0,0-1.38,19.59,19.59,0,0,1,.7-7.65l-.13-.14a19.64,19.64,0,0,0-1.22,9.23A5.94,5.94,0,0,1,850.13,319.17Z"
       transform="translate(-36.6 -133.2)"
       id="path377" />
  </g>
  <path
     d="M862.82,364.2s26.42,2.48,28.63-1.57"
     transform="translate(-36.6 -133.2)"
     opacity="0.1"
     id="path381" />
  <path
     d="M913.5,351.36s14.6-.54,18,4.81"
     transform="translate(-36.6 -133.2)"
     opacity="0.1"
     id="path383" />
  <path
     d="M198.31,305.25v56c0,1.67-3.13,3-7,3H43.58c-3.86,0-7-1.35-7-3v-56c0-1.67,3.12-3.37,7-3.37H191.33C195.18,301.88,198.31,303.58,198.31,305.25Z"
     transform="translate(-36.6 -133.2)"
     fill="#fff"
     id="path385" />
  <g
     opacity="0.2"
     id="g389">
    <path
       d="M198.31,305.25v56c0,1.67-3.13,3-7,3H43.58c-3.86,0-7-1.35-7-3v-56c0-1.67,3.12-3.37,7-3.37H191.33C195.18,301.88,198.31,303.58,198.31,305.25Z"
       transform="translate(-36.6 -133.2)"
       fill="#0b75ce"
       id="path387" />
  </g>
  <rect
     x="70.97"
     y="188.68"
     width="76.96"
     height="2.72"
     fill="#0b75ce"
     id="rect391" />
  <path
     d="M68.63,315.92a18.25,18.25,0,0,0-10.06,33.47v-1.22a4.14,4.14,0,0,1,3.65-4.1,7.24,7.24,0,0,0,12.7,0,4.14,4.14,0,0,1,3.65,4.1v1.3a18.25,18.25,0,0,0-9.94-33.55Zm7.15,23.13a7.23,7.23,0,0,1-14.42,0,7.92,7.92,0,0,1,4.15-10.61,2.32,2.32,0,0,1-.39-1.3,2.41,2.41,0,0,1,2.42-2.41h.17a2.41,2.41,0,0,0-2.24,2.41,2.31,2.31,0,0,0,.32,1.19l.07,0a2.42,2.42,0,0,1,0-.47,2.39,2.39,0,0,1,.45-1.4,2.41,2.41,0,0,1,2.31-1.7h.17a2.42,2.42,0,0,0-1.84,1.08,2.41,2.41,0,0,1,3.74,2,2.45,2.45,0,0,1,0,.27,7.92,7.92,0,0,1,5.16,10.95Z"
     transform="translate(-36.6 -133.2)"
     fill="#0b75ce"
     opacity="0.2"
     id="path393" />
  <rect
     x="70.97"
     y="195.3"
     width="76.96"
     height="2.72"
     fill="#0b75ce"
     opacity="0.2"
     id="rect395" />
  <rect
     x="70.97"
     y="201.92"
     width="76.96"
     height="2.72"
     fill="#0b75ce"
     opacity="0.2"
     id="rect397" />
  <rect
     x="70.97"
     y="208.54"
     width="76.96"
     height="2.72"
     fill="#0b75ce"
     opacity="0.2"
     id="rect399" />
  <path
     d="M300,476.46a60.5,60.5,0,0,1-1-9.21c0-3.7-5-7-5-7s-3.11-7.2-5.15-8.25-8.47-10.48-8.47-10.48a8.54,8.54,0,0,0-1.93-5.08,72.79,72.79,0,0,1-5.24-7.91v0c-.86-1.06-.43-1.8-1.72-7.94q-.11-.48-.24-.93c0-.14-.09-.26-.13-.39a10.38,10.38,0,0,0,2.44-10.74,4.41,4.41,0,0,0-1.23-1.9c-1.46-1.19-3.79-.7-5.29-1.83l1.59-7.06c.39-1.72.59-3.92-.93-4.85a7.62,7.62,0,0,0-1.78-.6c-2.62-.83-4.09-3.59-4.76-6.23a21.36,21.36,0,0,1-.52-7.8c.29-2.5,1-4.94,1.3-7.45a20.57,20.57,0,0,0-3.17-13.26,10.34,10.34,0,0,0-4.19-3.95c-1.61-.72-3.48-.81-5-1.76-3.22-2-3.06-6.89-5.62-9.7s-7.11-2.78-10.85-1.82-7.45,2.61-11.29,2.18c-2.47-.27-4.79-1.39-7.26-1.65a7.26,7.26,0,0,0-2.13.1l.05-.09c-1.84.33-3.52,1.35-3.95,3.09a4.77,4.77,0,0,0-.12,1.26c0,1,.24,2.06.26,3a2.92,2.92,0,0,1-.7,2.13c-.49.53-1.22.81-1.7,1.35a2.2,2.2,0,0,0-.63,1.59c0,1.54,1.92,2.89,3.21,3.51l0,0c-.35.35-.69.71-1,1.08A22.72,22.72,0,0,0,202.22,373a23.05,23.05,0,0,0,14,21.11c-.06.19-.11.37-.18.56a29.72,29.72,0,0,1-1.26,3.27,6.48,6.48,0,0,0-5.43.6c-2.47,1.69-7.29,1.59-8.58,1.27s-14.69-2-15.76-1.59-3.22-1.48-4.61,1.06-2,3.92-3.43,4.55-3.86,2.65-3.54,3.07-3.54,3-3.54,3-3.32,3.49-5.25,3.92-6,3.07-6,3.07l-4.72,3.7s-3.54.53-2.47-1.9-1.93-5.51-1.93-5.51-6-12.17-6-14.7-4.93-13.23-4.93-13.23l-.61-.06c-.09-.26-.18-.52-.28-.79-.9-2.55-2.07-5.67-3-7.51C133,373.4,131.9,373,131.9,373s-20.8-15.62-34.31-10.86,24.66,18.94,28.09,20.43c1.2.51,2.06,2.19,2.67,4.14A17.77,17.77,0,0,0,121,393.4s8.25,18.3,8.46,22.85,5.69,17.25,5.69,17.25,2,9.42,13.08,8.89c0,0,15.22,2.79,18.54,0s6.33-5,7.94-5.31a6.25,6.25,0,0,0,3-2.12s-5,31.74-7.5,34.5-24.34,38.41-16.52,44.75a156.79,156.79,0,0,0,19.62,13c.67.33,2.66-3,5.51-5.35,0,.59,0,1.2,0,1.83.05,12.68,1.7,32,4.05,36.32,3.43,6.35,2,18.63,2,18.63a14.8,14.8,0,0,0,5.8,1.39c.1.41.22.84.34,1.29,1.89,7.14,4.95,18.18,6.51,21.12,2.37,4.45,4.08,18.52,4.08,18.52s1.39,13.86.86,15.77c-.21.73.7,6.48,2.12,13.78h0c-.87,9.92-2.5,29.05-2.78,36v0c0,.13,0,.26,0,.39v.35c0,.15,0,.29,0,.42v0a7.86,7.86,0,0,0,0,1.3,4.07,4.07,0,0,1-.14,2,32.13,32.13,0,0,1-2.33,5.54c-.05.18-.63,1.38-1,2.69-.85.37-1.91,1.3-2.5,3.55-1.07,4.13-2.68,15.56-2.68,15.56s-.64,7-1.93,8.57-2.57,11.53,6.54,12.8,13.08-4.84,13.08-4.84l-.32-27.7v0a4,4,0,0,0,.47-.76l0-.06c.06-.14.13-.27.19-.43s0-.13.08-.2.09-.22.13-.34a.56.56,0,0,1,0-.12,18.2,18.2,0,0,0,.77-8.25s0-.09,0-.14l0-.22c0-.07,0-.14,0-.21a1.28,1.28,0,0,0,0-.19,1.93,1.93,0,0,1,0-.24v-.17c0-.18,0-.37.06-.56a.37.37,0,0,1,0-.11c0-.11,0-.22,0-.33a.77.77,0,0,0,0-.15c0-.11.05-.23.07-.35l0-.08c.08-.41.19-.82.3-1.25l0-.09.12-.42v0c.14-.45.29-.89.44-1.33l0-.09.15-.41,0-.05c.15-.42.31-.83.47-1.22l0-.11.15-.35,0-.1.33-.78h0l2.53,7.81s1.39,5.82.64,7.19.86,7.1,1.93,7.2l-1,7.2a110.07,110.07,0,0,0-1,12c-.07.45-.14.84-.19,1.14-.69,3.68,1,9.4,1,9.4,8.47,10,18.55.78,18.55.78s1.18-5.3,0-6.35-.64-4.87-.64-4.87.53-9.42.64-16.3-5.63-12.93-5.63-12.93l-.32.29c-1-2.69-2.23-5.84-2-7.25.43-2.43-1.18-28.14-1.18-28.14a153.47,153.47,0,0,0,.37-20.68h0c.14-1.17.27-2.32.4-3.43.65-5.53,1.17-10.26,1.38-12.73v0l0-.29c.05-.67.08-1.14.07-1.37,0-.82,0-1.85.08-2.93.21-3,.67-6.28.67-6.28l2.25-13.65s1.71-6.66,4.18-10.37l.29-.47v0c.1-.16.2-.34.3-.53l0-.08.3-.57,0-.08c.35-.68.72-1.47,1.1-2.33l.09-.19.29-.66.11-.26.29-.66c0-.09.07-.17.11-.26.11-.27.22-.54.34-.81l.16-.39c.09-.2.17-.4.25-.61l.22-.52.15-.39.24-.59c0-.09.08-.18.11-.27.61-1.53,1.21-3,1.73-4.42h0c.17-.43.33-.84.48-1.24,5.49.34,9.22.65,9.22.65s1.72-12.38,1.18-20.53c-.37-5.56.66-12.56,1.35-16.43.08-.43.15-.81.21-1.15l.15.12c2.69,2.11,4.61-4.87,4.61-4.87s-.72-6.53-1.69-14.42c0-.26-.07-.53-.1-.79a41.52,41.52,0,0,0,4.69.72s.86-.08,2-.23a56.82,56.82,0,0,0,10.18,4.56l5.68-10.58a43.14,43.14,0,0,1,3.75-6.24c1.72-2.12,7.83-8.89,7.72-10.16s2-8.57,4.18-11.85S300.12,477,300,476.46Zm-23.8,8c-2.25.95-4.4,6.24-4.5,7.83s-2.47,8.57-4.94,9.42c-2.26.78-6.6,4.76-7.29,5.4-.71.07-1.51.16-2.35.3-.94-6.68-1.87-12.2-2.47-13.32-1.71-3.18,1.89-13.33,1.89-13.33s.36-10.26,2.61-12.7,1.72-8.57,1.72-8.57.53-2.54.75-3.7,3.19,0,3.21,0h0s5.79,3.17,6.65,7.93,7.18,13,7.18,13-1,2.85,0,4.34S278.46,483.55,276.21,484.5Z"
     transform="translate(-36.6 -133.2)"
     fill="url(#f94edff0-5540-4209-9ffe-d34bff61dab8)"
     id="path401" />
  <path
     d="M121.15,394.07a17.29,17.29,0,0,1,17.32-8.13V398.3H131l-5.92-1.53Z"
     transform="translate(-36.6 -133.2)"
     fill="#4c4981"
     id="path403" />
  <path
     d="M121.15,394.07a17.29,17.29,0,0,1,17.32-8.13V398.3H131l-5.92-1.53Z"
     transform="translate(-36.6 -133.2)"
     opacity="0.1"
     id="path405" />
  <path
     d="M139,389.21l-9.19,6.45s-.08-1.3-.31-3.06c-.46-3.33-1.49-8.33-3.71-9.3-3.38-1.48-41-15.63-27.66-20.38s33.79,10.83,33.79,10.83,1.06.36,2.74,3.85c.89,1.83,2,4.95,2.94,7.49C138.41,387.39,139,389.21,139,389.21Z"
     transform="translate(-36.6 -133.2)"
     fill="#ae6e79"
     id="path407" />
  <polygon
     points="175.88 265.94 176.92 265.44 179.86 268.79 177.46 273.91 173.37 272.27 174.32 268.18 175.88 265.94"
     fill="#4c4981"
     id="polygon409" />
  <path
     d="M198.56,699.07s-2.64-.31-3.7,3.8-2.64,15.53-2.64,15.53-.63,7-1.9,8.55-2.53,11.51,6.44,12.78,12.89-4.83,12.89-4.83l-.32-27.7Z"
     transform="translate(-36.6 -133.2)"
     fill="#444053"
     id="path411" />
  <path
     style="display:inline;fill:none;stroke:#477c88;stroke-width:1px;stroke-linecap:butt;stroke-linejoin:miter;stroke-opacity:1"
     d="M 317.72349,326.03603 97.903169,228.13286"
     id="path655"
     inkscape:label="2" />
  <path
     d="M229.87,700.32s5.65,6,5.55,12.9-.64,16.27-.64,16.27-.52,3.8.64,4.86,0,6.33,0,6.33-9.93,9.22-18.27-.77c0,0-1.63-5.71-1-9.39s2.53-20.25,2.53-20.25Z"
     transform="translate(-36.6 -133.2)"
     fill="#444053"
     id="path413" />
  <path
     d="M243.87,574s-5.71,16-8.14,19.64S231.62,604,231.62,604l-2.22,13.63a74.75,74.75,0,0,0-.74,9.19c.1,3.06-5.49,47.73-5.49,47.73l-8.87,11.3s-3.91,7.92-3.28,11.2-.42,8.55-1.69,10.13c0,0-.21,10.35-.53,12.68s1.17,8.87,0,10-16.68.63-17.11-1.27,1.91-11.09,1.91-11.09l1.37-8.87s2.74-4.86,2.11-6.44,1.16-5.28,1.27-5.6,3-5.49,2.43-7.49,3.27-44.57,3.27-44.57l10.88-76.36Z"
     transform="translate(-36.6 -133.2)"
     fill="#ae6e79"
     id="path415" />
  <path
     d="M243.87,574s-.86,2.4-2.06,5.56c-1.88,5-4.59,11.82-6.08,14.08-2.43,3.7-4.12,10.35-4.12,10.35l-2.21,13.63a74.73,74.73,0,0,0-.74,9.18c0,1.21-.81,8.93-1.85,17.81-1.6,13.59-3.64,29.93-3.64,29.93l-8.88,11.3s-.45.91-1,2.23c-1.11,2.59-2.68,6.8-2.26,9,.63,3.28-.42,8.56-1.69,10.14,0,0-.21,10.36-.53,12.67s1.17,8.88,0,10-16.68.64-17.11-1.27,1.9-11.08,1.9-11.08l1.38-8.88s2.74-4.86,2.11-6.44,1.16-5.28,1.27-5.6,3-5.49,2.43-7.5c-.41-1.53,1.7-26.54,2.72-38.4.33-3.74.55-6.16.55-6.16l9.36-65.69.75-5.3.77-5.37Z"
     transform="translate(-36.6 -133.2)"
     opacity="0.1"
     id="path417" />
  <path
     d="M234.36,732.87c.1,1.16-14.89,2.85-17,1.58s0-17,0-17l1-7.18c-1.06-.11-2.64-5.81-1.9-7.19s-.64-7.18-.64-7.18l-2.49-7.8-1.52-4.76c-2.46-5.45-6-21-8.26-32.6-1.4-7.29-2.29-13-2.09-13.77.53-1.9-.85-15.73-.85-15.73s-1.68-14-4-18.48c-1.54-2.94-4.55-14-6.42-21.09-.95-3.65-1.61-6.27-1.61-6.27s16-1.34,25.64-1.81c4.46-.21,7.58-.24,7.21.13s-.45,2.3-.43,5.09c0,7.25,1.05,20,2.12,23.42,1.48,4.75,3,19,2.32,20.38s-.42,10.56-.42,10.56a47.43,47.43,0,0,1,1.85,11.47,154.79,154.79,0,0,1-.37,20.64s1.59,25.66,1.16,28.09,3.38,10,3.38,11.51S232,716.39,232,716.39,234.26,731.71,234.36,732.87Z"
     transform="translate(-36.6 -133.2)"
     fill="#ae6e79"
     id="path419" />
  <path
     d="M242.7,424.38l-1.82,2-1.18,1.27L232.78,435l-17.85,2-9.48-2.54-2.35-.62s0-4.77.43-10.49c.6-7.33,2.05-16.24,5.49-18.66a13.64,13.64,0,0,0,4-5.09,28.49,28.49,0,0,0,1.73-4.27c.07-.19.12-.37.18-.55a46.79,46.79,0,0,0,1.68-7.84s2.28-1.26,5.44-2.73c8.27-3.86,22.55-9.18,17.58,2.73a44.91,44.91,0,0,0-1.86,5.36c-.08.26-.15.53-.21.79-1.66,6.64-.56,10.66.68,12.88h0a9,9,0,0,0,.72,1.09,5.5,5.5,0,0,0,1.2,1.22l2.06,13.05.17,1.08Z"
     transform="translate(-36.6 -133.2)"
     fill="#ae6e79"
     id="path421" />
  <path
     d="M239.64,387.63c-.94,2.26.46-1.85,0,0-3.76,2.68-12.63,10.3-17.62,10.3-3.36,0-4.37-.61-7.26-1.91a46.9,46.9,0,0,0,1.86-8.39S246.5,371.15,239.64,387.63Z"
     transform="translate(-36.6 -133.2)"
     opacity="0.1"
     id="path423" />
  <path
     d="M247.23,373.75a23,23,0,0,1-20.61,22.89,21.37,21.37,0,0,1-2.41.13,23,23,0,1,1,23-23Z"
     transform="translate(-36.6 -133.2)"
     fill="#ae6e79"
     id="path425" />
  <path
     d="M250.52,475.81l-3.27,8.56s-2.68.12-6.84.25c-14,.45-45,1-46.39-2.58a8.67,8.67,0,0,1-.48-2.84c-.19-5.5,2.38-13.95,2.38-13.95s1.48-16.9,1.48-17.63S196.13,435,196.13,435l2.53-9.5,7.08-5s3.17,4.86,5.07,5.28,4.44,2.75,4.44,2.75,6.22,3.8,8.23,1.68,17.64-11.4,17.64-11.4l8.24,9.08Z"
     transform="translate(-36.6 -133.2)"
     opacity="0.1"
     id="path427" />
  <path
     d="M250.52,477.08l-3.27,8.56s-2.68.12-6.84.24l-.41,0-6.07.16c-11.16.25-26.55.32-34.58-.85-3-.44-5-1-5.33-1.9a7,7,0,0,1-.38-1.57,12.58,12.58,0,0,1-.1-1.27c-.19-5.5,2.38-14,2.38-14s1.48-16.9,1.48-17.64-1.27-12.57-1.27-12.57l2.53-9.5,4.87-3.41,2.21-1.55a31.92,31.92,0,0,0,2.43,3.19,6.36,6.36,0,0,0,2.64,2.08c1.9.43,4.44,2.75,4.44,2.75s6.22,3.81,8.23,1.69c1.54-1.62,11-7.43,15.42-10.08l2.22-1.33,1.11,1.23,7.13,7.86Z"
     transform="translate(-36.6 -133.2)"
     fill="#fff"
     id="path429" />
  <path
     d="M139,389.21l-9.19,6.45s-.08-1.3-.31-3.06c4.54-1.91,7.3-6.15,8.1-7.51C138.41,387.39,139,389.21,139,389.21Z"
     transform="translate(-36.6 -133.2)"
     opacity="0.1"
     id="path431" />
  <path
     d="M171.31,411.07l-2-.52s-3.28,3.48-5.18,3.9-5.91,3.07-5.91,3.07l-4.65,3.69s-3.49.53-2.43-1.9-1.9-5.49-1.9-5.49-5.91-12.15-5.91-14.68-4.86-13.2-4.86-13.2-6.13,11.93-17.32,8.13c0,0,8.13,18.27,8.34,22.81s5.6,17.22,5.6,17.22,2,9.4,12.88,8.87c0,0,15,2.79,18.27,0s6.23-5,7.82-5.3a6.19,6.19,0,0,0,2.95-2.11V423Z"
     transform="translate(-36.6 -133.2)"
     fill="#3f3d56"
     id="path433"
     style="fill:#008080" />
  <path
     d="M152.51,423s2.64,9.82,1,10.88Z"
     transform="translate(-36.6 -133.2)"
     opacity="0.1"
     id="path435" />
  <path
     d="M240.41,485.88c-14,.45-45,1-46.39-2.57a8.67,8.67,0,0,1-.48-2.84l45.89,2.42Z"
     transform="translate(-36.6 -133.2)"
     opacity="0.1"
     id="path437" />
  <path
     d="M243.87,574s-.86,2.4-2.05,5.56c-5.83-.36-13.55-.73-20.88-.78-2.6,0-5.14,0-7.53.08a56.41,56.41,0,0,0-12.31,1.37,32.48,32.48,0,0,1-11,1.41c-.95-3.65-1.61-6.27-1.61-6.27s16-1.34,25.64-1.81l.77-5.37Z"
     transform="translate(-36.6 -133.2)"
     opacity="0.1"
     id="path439" />
  <path
     d="M256.22,535.38l-1.79,3.8s-.25,1.13-.57,2.93c-.68,3.86-1.7,10.85-1.34,16.4.54,8.13-1.16,20.48-1.16,20.48s-38.86-3.27-50.26,0-17,0-17,0,1.37-12.25-2-18.58c-2.32-4.34-3.94-23.6-4-36.25,0-5.85.29-10.28,1-11.17,2.32-2.86,12.25-31.37,12.25-31.37l2.26.12,6,.32L234,483.87l5.39.28.57,1.75Z"
     transform="translate(-36.6 -133.2)"
     fill="#65617d"
     id="path441" />
  <path
     d="M273.33,522.7l.32,3.38s-17-5.54-16.16-12.35,0-6,0-6l13.68,1.16Z"
     transform="translate(-36.6 -133.2)"
     fill="#4c4981"
     id="path443" />
  <path
     d="M273.33,522.7l.32,3.38s-17-5.54-16.16-12.35,0-6,0-6l13.68,1.16Z"
     transform="translate(-36.6 -133.2)"
     opacity="0.1"
     id="path445" />
  <path
     d="M163.87,425.73a15.17,15.17,0,0,0,6,3.12,3.9,3.9,0,0,1-1.77-.83c-1.22-.87-2.38-1.81-3.55-2.73-.94-.74-2.13-2-3.3-2.27A18.21,18.21,0,0,0,163.87,425.73Z"
     transform="translate(-36.6 -133.2)"
     opacity="0.1"
     id="path447" />
  <path
     d="M164.13,430.18a7.35,7.35,0,0,1,1.31,2.09,8.4,8.4,0,0,1,.38,2.7,8.52,8.52,0,0,1-.47,3.83l-2.77-6.57c-.47-1.12-1-2.24-1.52-3.32-.25-.46-1.82-2.36-1.64-2.76C159.94,425,163.62,429.55,164.13,430.18Z"
     transform="translate(-36.6 -133.2)"
     opacity="0.1"
     id="path449"
     style="fill:#008080" />
  <path
     d="M240.27,466.62a8.84,8.84,0,0,0,5-2.31c-2.81.35-5.46,1.45-8.23,2a12.23,12.23,0,0,1-7.67-.7C232.52,467.19,236.85,467.24,240.27,466.62Z"
     transform="translate(-36.6 -133.2)"
     opacity="0.1"
     id="path451" />
  <path
     d="M232.34,447.29a1.89,1.89,0,0,1-1.43-.36q-3.16-1.8-6.24-3.78a37.85,37.85,0,0,1-6.1-4.22C222.76,442.72,226.66,445.92,232.34,447.29Z"
     transform="translate(-36.6 -133.2)"
     opacity="0.1"
     id="path453" />
  <path
     d="M238.2,469.69a13.42,13.42,0,0,0,3.29-.26,4.45,4.45,0,0,0,2.71-1.78,1.53,1.53,0,0,0-1.15.18,19.42,19.42,0,0,1-10.6,1.27C234.16,469.83,236.37,469.68,238.2,469.69Z"
     transform="translate(-36.6 -133.2)"
     opacity="0.1"
     id="path455" />
  <path
     d="M218.19,518.72a33.89,33.89,0,0,1-6.75,1.33,41.43,41.43,0,0,1-5.34-.1l-8.65-.55-4.33-.28c-.51,0-2.6,0-1.57-1,.52-.49,3.41-.18,4.15-.2,1.44,0,2.87-.07,4.3-.08,2.86,0,5.73,0,8.59.18Q213.41,518.21,218.19,518.72Z"
     transform="translate(-36.6 -133.2)"
     opacity="0.1"
     id="path457" />
  <path
     d="M208.18,523c-1.47-.06-3.36.82-4.87,1a32.07,32.07,0,0,1-5.09.21,28.64,28.64,0,0,1-9.83-2C195,522.54,201.59,522.74,208.18,523Z"
     transform="translate(-36.6 -133.2)"
     opacity="0.1"
     id="path459" />
  <path
     d="M189.68,527.53a15.51,15.51,0,0,1,1.89.51c3.64,1.05,7.52.13,11.19-.78-.92,1.38-2.63,2-4.25,2.36a20,20,0,0,1-8.29.3c-.87-.17-3-.48-3.48-1.38C186.08,527.21,188.87,527.4,189.68,527.53Z"
     transform="translate(-36.6 -133.2)"
     opacity="0.1"
     id="path461" />
  <path
     d="M210.13,534.34a30.66,30.66,0,0,1,3.23.84c4.1,1,8.36-.38,12.48-1.32a57.73,57.73,0,0,1,15.11-1.4c-.91,0-2.35.8-3.24,1.07-1.17.35-2.35.67-3.53,1a71,71,0,0,1-7.06,1.38,72.31,72.31,0,0,1-14.48.63c-2.21-.12-6,.11-7.94-1A8.78,8.78,0,0,1,210.13,534.34Z"
     transform="translate(-36.6 -133.2)"
     opacity="0.1"
     id="path463" />
  <path
     d="M211.66,404.09s.21,9.73-1.38,14.16c-.49,1.38-1.27,3.93-2.11,6.79-.93,3.17-1.94,6.72-2.72,9.47s-1.29,4.65-1.29,4.65-3.57,29.06-4.5,42.9c0,.24,0,.49,0,.72-.05.78-.14,1.59-.26,2.43-2.06,13.75-13.92,34.95-17.9,36.65a12,12,0,0,0-3.35,2.3c0-5.85.29-10.28,1-11.17,2.32-2.86,12.25-31.37,12.25-31.37l2.26.12a12.58,12.58,0,0,1-.1-1.27c-.19-5.5,2.38-14,2.38-14s1.48-16.9,1.48-17.64-1.27-12.57-1.27-12.57l2.53-9.5,4.87-3.41c.6-7.33,2.05-16.24,5.49-18.66a13.64,13.64,0,0,0,4-5.09c.69.09-.56-.51-.56-.51Z"
     transform="translate(-36.6 -133.2)"
     opacity="0.1"
     id="path465" />
  <path
     d="M213.52,398.64a6.32,6.32,0,0,0-5.35.61c-2.43,1.68-7.18,1.58-8.45,1.26s-14.47-2-15.52-1.58-3.17-1.48-4.54,1.05-2,3.91-3.38,4.55-3.81,2.64-3.49,3.06-3.48,3-3.48,3l7.7,25s-5,31.68-7.39,34.42-24,38.34-16.26,44.68a155.94,155.94,0,0,0,19.32,13c.85.42,3.91-5.28,8.14-7.08S198.14,495,199,481.52s4.54-43.62,4.54-43.62,4.54-16.48,6.13-20.91S211,402.82,211,402.82Z"
     transform="translate(-36.6 -133.2)"
     fill="#3f3d56"
     id="path467"
     style="fill:#008080" />
  <path
     d="M256.22,535.38l-1.79,3.8s-.25,1.13-.57,2.93a1.66,1.66,0,0,1-.91-.39c-2.64-2.12-18.17-18.06-18.9-32.22-.55-10.44-.29-19.43-.12-23.44.06-1.26.1-2,.11-2.19a.08.08,0,0,0,0,0s12-14.58,10.66-19.75-4.54-32.85-4.54-32.85l-.47-3.63-.8-6.13L237,406.65l2,.46a5.5,5.5,0,0,0,1.2,1.22l2.06,13.05,7.13,7.86,1.16,47.84-3.27,8.56s-2.68.12-6.84.24l-.41,0Z"
     transform="translate(-36.6 -133.2)"
     opacity="0.1"
     id="path469" />
  <path
     d="M262.88,456.38s-3-1.16-3.17,0-.74,3.69-.74,3.69.52,6.13-1.69,8.56-2.57,12.67-2.57,12.67-3.55,10.14-1.87,13.31c.61,1.15,1.56,6.92,2.51,13.82.6,4.31,1.2,9.06,1.74,13.39,1,7.89,1.67,14.4,1.67,14.4s-1.9,7-4.54,4.86S236.05,523,235.31,508.87c-.52-9.95-.31-18.58-.14-22.84.08-1.81.14-2.83.14-2.83s12-14.57,10.67-19.74-4.54-32.85-4.54-32.85l-.56-4.27-.59-4.6-.13-1L238.25,406h0c.34.07,12.19,2.75,13.75,4.31s11.19,3.8,11.19,3.8a8.47,8.47,0,0,1,6,6.16c.09.29.16.6.23.92,1.27,6.13.85,6.86,1.7,7.92S262.88,456.38,262.88,456.38Z"
     transform="translate(-36.6 -133.2)"
     fill="#3f3d56"
     id="path471"
     style="fill:#008080" />
  <path
     d="M257.09,521.82c-4.34-.84-10.73-2.85-10.59-7.25.14-4.13,5.1-5.61,8.85-6.14C256,512.74,256.55,517.49,257.09,521.82Z"
     transform="translate(-36.6 -133.2)"
     opacity="0.1"
     id="path473" />
  <path
     d="M270.48,519.64c-.17.37-.89.69-1.84,1a48.26,48.26,0,0,1-7,1.14s-14.68-1.16-14.47-7.81c.15-4.78,6.78-6,10.51-6.33,1.46-.13,2.48-.11,2.48-.11S271.12,518.27,270.48,519.64Z"
     transform="translate(-36.6 -133.2)"
     fill="#ae6e79"
     id="path475" />
  <path
     d="M270.48,519.64c-.17.37-.89.69-1.84,1-3.83-5.12-9.17-11.69-11.78-12.27,0,0,.3-.29.79-.73,1.46-.13,2.48-.11,2.48-.11S271.12,518.27,270.48,519.64Z"
     transform="translate(-36.6 -133.2)"
     opacity="0.1"
     id="path477" />
  <path
     d="M266.78,428.5l4.33.63a74.44,74.44,0,0,0,5.18,7.92,8.61,8.61,0,0,1,1.9,5.07s6.34,9.4,8.34,10.46,5.07,8.24,5.07,8.24,5,3.27,5,7a61,61,0,0,0,.95,9.18c.1.53-.74,7.08-2.86,10.35s-4.22,10.56-4.11,11.83-5.92,8-7.61,10.14a42.67,42.67,0,0,0-3.69,6.23l-5.6,10.56s-11.83-17.42-16.16-18.37c0,0,4.86-4.65,7.29-5.49s4.75-7.82,4.86-9.4,2.21-6.87,4.43-7.82,3.38-1.9,2.43-3.38,0-4.33,0-4.33-6.23-8.24-7.08-13-6.54-7.92-6.54-7.92l-3.28-8Z"
     transform="translate(-36.6 -133.2)"
     fill="#3f3d56"
     id="path479"
     style="fill:#008080" />
  <path
     d="M282.49,467.92a13.69,13.69,0,0,1,8.53-3.23c-2,.35-4.12.78-5.58,2.18a12.74,12.74,0,0,0-1.54,2c-.51.72-4.58,5.9-5.23,5.09C277.7,472.72,281.67,468.62,282.49,467.92Z"
     transform="translate(-36.6 -133.2)"
     opacity="0.1"
     id="path481" />
  <path
     d="M272.93,462.92a3.64,3.64,0,0,0,3-2.13,12,12,0,0,0,.94-3.75,55.58,55.58,0,0,1,1.31-6.41,4.08,4.08,0,0,0,.21-1.34A3.79,3.79,0,0,0,278,448a9.2,9.2,0,0,0-.92-1.92c-.79.89-1,2.88-1.33,4q-.58,2.16-1.11,4.32C274.47,455.16,273,462.92,272.93,462.92Z"
     transform="translate(-36.6 -133.2)"
     opacity="0.1"
     id="path483"
     style="fill:#008080" />
  <path
     d="M269.19,420.29a9.42,9.42,0,0,1-1.46,1.5c-1.69,1.37-4,2.53-4.24,4.69a5.17,5.17,0,0,1-.25,2.09c-.55.94-1.91.87-3,.68a5.28,5.28,0,0,1-2.53-.93c-1.13-1-1.24-2.7-2.1-3.91a5.34,5.34,0,0,0-4.28-1.92c-1.62-.05-3.23.31-4.84.39a13.41,13.41,0,0,1-3.1-.21c-.34-.06-.67-.13-1-.21a13.12,13.12,0,0,1-2.11-.72,10.64,10.64,0,0,1-1-.48,13.59,13.59,0,0,1-3-2.07c-1.58-1.46-2.89-3.45-2.76-5.61a34.46,34.46,0,0,1,.9-3.84c.65-3.73-1.83-7.26-4.52-9.93-1.07-1.05-2.21-2.09-3.28-3.17a15.82,15.82,0,0,1-3.87-5.5,16.76,16.76,0,0,1-.69-6.88,46.79,46.79,0,0,0,.21-7.09c-.8-8.4-8-14.83-15.14-18.34l-.31-.16a23,23,0,1,1,31,33.68c-.08.26-.15.53-.21.79-1.66,6.64-.56,10.66.68,12.88h0c.34.07,12.19,2.75,13.75,4.31s11.19,3.8,11.19,3.8A8.47,8.47,0,0,1,269.19,420.29Z"
     transform="translate(-36.6 -133.2)"
     opacity="0.1"
     id="path485" />
  <path
     d="M205.23,352.55c.47-.54,1.19-.82,1.67-1.35,1.49-1.62,0-4.27.55-6.41.59-2.38,3.5-3.42,5.94-3.16s4.72,1.37,7.15,1.64c3.78.43,7.44-1.21,11.13-2.17s8.14-1,10.69,1.81,2.36,7.64,5.52,9.69c1.46.94,3.3,1,4.88,1.75a10.12,10.12,0,0,1,4.13,3.95A20.69,20.69,0,0,1,260,371.53c-.26,2.5-1,4.94-1.28,7.44a21.7,21.7,0,0,0,.51,7.78c.67,2.63,2.11,5.39,4.7,6.22a7.38,7.38,0,0,1,1.75.6c1.49.92,1.3,3.12.92,4.83L265,405.45c1.48,1.13,3.77.64,5.21,1.83a4.23,4.23,0,0,1,1.21,1.9,10.39,10.39,0,0,1-3.1,11.34c-1.69,1.38-4,2.53-4.24,4.7a5,5,0,0,1-.25,2.08c-.55.94-1.91.87-3,.68a5.18,5.18,0,0,1-2.52-.93c-1.14-1-1.24-2.7-2.1-3.91a5.34,5.34,0,0,0-4.28-1.92c-1.63-.05-3.23.31-4.85.39a14.27,14.27,0,0,1-10.21-3.69,7.4,7.4,0,0,1-2.77-5.6,37,37,0,0,1,.9-3.85c.65-3.72-1.83-7.26-4.51-9.92s-5.84-5.13-7.15-8.68c-1.64-4.4,0-9.3-.49-14-.8-8.4-8-14.83-15.13-18.33C206.09,356.75,203.37,354.66,205.23,352.55Z"
     transform="translate(-36.6 -133.2)"
     fill="#444053"
     id="path487" />
  <path
     d="M261.7,425.07c-1.13-1-1.23-2.69-2.09-3.91a5.38,5.38,0,0,0-4.29-1.91c-1.62-.05-3.22.31-4.84.39A14.32,14.32,0,0,1,240.27,416c-1.59-1.46-2.89-3.46-2.77-5.61a36.83,36.83,0,0,1,.9-3.84c.65-3.73-1.83-7.26-4.52-9.93s-5.83-5.13-7.15-8.68c-1.63-4.39,0-9.3-.48-14-.8-8.4-8-14.84-15.14-18.34-1.67-.82-4.39-2.9-2.53-5,.47-.54,1.18-.81,1.67-1.34,1.49-1.62,0-4.28.55-6.42a3.39,3.39,0,0,1,.54-1.17,4.57,4.57,0,0,0-3.89,3.07c-.53,2.14.94,4.8-.55,6.42-.48.53-1.2.8-1.67,1.34-1.86,2.12.86,4.2,2.54,5,7.17,3.51,14.33,9.94,15.13,18.34.44,4.66-1.15,9.57.49,14,1.31,3.55,4.46,6,7.15,8.68s5.16,6.2,4.51,9.93a37.44,37.44,0,0,0-.9,3.84c-.12,2.15,1.18,4.15,2.77,5.61a14.27,14.27,0,0,0,10.21,3.69c1.62-.08,3.22-.44,4.85-.39a5.36,5.36,0,0,1,4.28,1.91c.86,1.22,1,2.95,2.1,3.91a5.18,5.18,0,0,0,2.52.93c1.08.2,2.44.27,3-.68a2.36,2.36,0,0,0,.24-1.24A4.86,4.86,0,0,1,261.7,425.07Z"
     transform="translate(-36.6 -133.2)"
     opacity="0.1"
     id="path489" />
  <path
     style="fill:none;stroke:#477c88;stroke-width:1px;stroke-linecap:butt;stroke-linejoin:miter;stroke-opacity:1"
     d="m 159.78536,202.27164 118.2227,-49.8752"
     id="path633" />
  <path
     style="fill:none;stroke:#477c88;stroke-width:1px;stroke-linecap:butt;stroke-linejoin:miter;stroke-opacity:1"
     d="m 365.75146,180.10489 30.47929,115.45185"
     id="path635" />
  <path
     style="fill:none;stroke:#477c88;stroke-width:1px;stroke-linecap:butt;stroke-linejoin:miter;stroke-opacity:1"
     d="m 447.95318,358.36254 v 118.2227"
     id="path637" />
  <path
     style="fill:none;stroke:#477c88;stroke-width:1px;stroke-linecap:butt;stroke-linejoin:miter;stroke-opacity:1"
     d="m 439.64065,147.77837 147.77836,38.79182"
     id="path639" />
  <path
     style="fill:none;stroke:#477c88;stroke-width:1px;stroke-linecap:butt;stroke-linejoin:miter;stroke-opacity:1"
     d="m 577.25925,247.52877 48.02797,135.77137"
     id="path641" />
  <path
     style="fill:none;stroke:#477c88;stroke-width:1px;stroke-linecap:butt;stroke-linejoin:miter;stroke-opacity:1"
     d="M 488.59223,496.90476 616.97469,444.25872"
     id="path643" />
  <path
     style="fill:none;stroke:#477c88;stroke-width:1px;stroke-linecap:butt;stroke-linejoin:miter;stroke-opacity:1"
     d="m 478.43247,326.03603 120.06992,57.26411"
     id="path645" />
  <path
     style="fill:none;stroke:#477c88;stroke-width:1px;stroke-linecap:butt;stroke-linejoin:miter;stroke-opacity:1"
     d="m 652.99567,220.74394 47.10435,-52.64605"
     id="path647" />
  <path
     style="fill:none;stroke:#477c88;stroke-width:1px;stroke-linecap:butt;stroke-linejoin:miter;stroke-opacity:1"
     d="m 412.85582,295.55674 c 78.50725,-80.35449 78.50725,-81.27811 78.50725,-81.27811"
     id="path651" />
</svg>
